<?xml version="1.0" encoding="UTF-8" standalone="no"?>
<svg
   width="672.03"
   height="369.16"
   viewBox="0 0 612 792"
   version="1.1"
   id="svg316"
   sodipodi:docname="huvipuisto.svg"
   inkscape:version="1.1 (c68e22c387, 2021-05-23)"
   xmlns:inkscape="http://www.inkscape.org/namespaces/inkscape"
   xmlns:sodipodi="http://sodipodi.sourceforge.net/DTD/sodipodi-0.dtd"
   xmlns="http://www.w3.org/2000/svg"
   xmlns:svg="http://www.w3.org/2000/svg">
  <sodipodi:namedview
     id="namedview318"
     pagecolor="#ffffff"
     bordercolor="#999999"
     borderopacity="1"
     inkscape:pageshadow="0"
     inkscape:pageopacity="0"
     inkscape:pagecheckerboard="0"
     showgrid="false"
     inkscape:zoom="1.7335535"
     inkscape:cx="342.93721"
     inkscape:cy="184.30351"
     inkscape:window-width="2560"
     inkscape:window-height="1377"
     inkscape:window-x="-8"
     inkscape:window-y="-8"
     inkscape:window-maximized="1"
     inkscape:current-layer="svg316" />
  <defs
     id="defs160">
    <font
       horiz-adv-x="0"
       id="font92">
      <font-face
         font-family="fnt0"
         ascent="962"
         descent="-235"
         units-per-em="2048"
         id="font-face2" />
      <missing-glyph
         horiz-adv-x="1.1346e-306"
         id="missing-glyph4" />
      <glyph
         d="m0,0z"
         horiz-adv-x="516"
         id="glyph6" />
      <glyph
         d="m281,340-76,891q0,2-1,5-3,35-3,54 0,74 26,115t72,41q43,0 71-40 29-39 29-99 0-20-3-65 0-7-1-11l-78-891h-36m-105-242q0,52 35,85 35,34 88,34 51,0 86-34t35-85q0-49-37-86-36-37-84-37-50,0-87,36-36,37-36,87z"
         horiz-adv-x="598"
         unicode="!"
         id="glyph8" />
      <glyph
         d="m166-274q82,73 116,124 35,50 35,93 0,39-62,60-17,6-25,9-53,19-78,48t-25,69q0,45 30,72 31,28 81,28 71,0 118-60 47-59 47-151 0-90-51-170-50-81-153-157l-33,35z"
         horiz-adv-x="516"
         unicode=","
         id="glyph10" />
      <glyph
         d="m137,109q0,52 34,86 35,34 87,34 51,0 86-35t35-85-36-86q-36-35-85-35-50,0-86,35-35,36-35,86z"
         horiz-adv-x="516"
         unicode="."
         id="glyph12" />
      <glyph
         d="m246,0v43q124,3 159,23t35,114v856q0,71-19,86-18,15-83,15h-105v49q100,22 182,70 82,49 163,135h38v-1207q0-92 26-111 26-18 149-30v-43h-545z"
         horiz-adv-x="1034"
         unicode="1"
         id="glyph14" />
      <glyph
         d="m109,0v27q0,147 198,402 50,65 76,99l168,226q81,110 115,184 34,75 34,137 0,85-54,141t-134,56q-101,0-188-72-86-71-183-235l-35,14q98,210 218,312 121,102 272,102 133,0 216-78 83-77 83-199 0-144-224-381l-16-16-243-260q-80-85-130-157-50-71-79-140h514q63,0 97,28 35,28 67,105h41l-140-404h-37v21q0,54-20,71-19,17-121,17h-495z"
         horiz-adv-x="1034"
         unicode="2"
         id="glyph16" />
      <glyph
         d="m160,780q0,53 34,87t87,34q51,0 86-35 36-35 36-86 0-49-37-85-36-36-85-36-51,0-86,36t-35,85m0-671q0,52 34,86t87,34q51,0 86-35 36-35 36-85 0-49-37-85-36-36-85-36-51,0-86,35-35,36-35,86z"
         horiz-adv-x="563"
         unicode=":"
         id="glyph18" />
      <glyph
         d="m315,592h439l-228,582-211-582m-374-592v49l69,12q60,11 125,202 31,90 51,145l301,788 2,4q7,21 7,31t-4,20q-3,11-9,21l-18,31q45,31 83,70t70,87h19l500-1300q26-68 56-90 31-21 95-21v-49h-536v49l63,8q64,8 82,22t18,44q0,15-4,32-3,18-10,36l-125,341h-481l-105-284q-16-44-22-71-6-26-6-46 0-32 26-50 26-17 91-28l43-6v-47h-381z"
         horiz-adv-x="1236"
         unicode="A"
         id="glyph20" />
      <glyph
         d="m90,1v48h12q84,0 111,22t27,128v10 1024q0,97-26,118t-110,21h-14v49q99,1 236,3 138,3 176,3 304,0 443-87 140-87 140-275 0-106-59-183-59-76-176-120 155-22 246-117 92-94 92-229 0-215-161-320-160-104-490-104-58,0-260,4-119,3-187,5m359,751h45q195,0 296,77t101,226q0,155-99,239t-282,84q-25,0-38-1-13,0-23-1v-624m0-576q0-74 36-104 36-29 131-29 166,0 257,87 92,87 92,245 0,179-91,255-90,77-311,77h-114v-531z"
         horiz-adv-x="1263"
         unicode="B"
         id="glyph22" />
      <glyph
         d="m1300,500h39v-467h-41l-36,75q-4,7-11,11-6,4-12,4-10,0-53-26-201-122-406-122-119,0-229,39t-203,113q-132,107-196,250-64,144-64,336 0,132 38,251 39,119 112,212 98,127 243,198 146,72 307,72 150,0 300-67 151-66 153-66 24,0 38,15t26,56h36v-475h-43q-25,223-154,356-128,134-315,134-222,0-372-195-150-194-150-493 0-298 145-490t361-192q190,0 317,122 127,123 170,349z"
         horiz-adv-x="1458"
         unicode="C"
         id="glyph24" />
      <glyph
         d="m113,0v47q95,3 122,23t27,112v27 1024q0,97-26,118-25,21-109,21h-14v49h1028l102-325-43-17q-67,107-111,158-43,52-88,84-41,29-104,41t-217,12h-33-176v-624q29-1 55-2h52q185,0 251,54 66,55 86,208h35v-570h-35q-21,152-86,206t-251,54h-107v-499q0-96 32-125t136-29h125q177,0 267,58 90,59 224,278l39-12-75-371h-1106z"
         horiz-adv-x="1323"
         unicode="E"
         id="glyph26" />
      <glyph
         d="m113,0v49h14q84,0 109,21 26,21 26,120v19 1024q0,97-26,118-25,21-109,21h-14v49h540v-47q-119-3-151-31-31-27-31-141v-1001q0-96 32-125 33-29 146-29h135q191,0 297,75 107,76 250,335h45l-114-457h-1149z"
         horiz-adv-x="1372"
         unicode="L"
         id="glyph28" />
      <glyph
         d="m1038,0-90,170q-126,241-245,360t-232,119q-12,0-18-1-6,0-10-1l-1-475q0-72 31-98 32-25 147-27l1-47h-539v49h14q85,0 111,21 26,22 26,129v10 1016q0,105-26,126-25,21-111,21h-14v49h111q27,0 119,1 93,1 159,1 378,0 530-90t152-301q0-144-80-236-79-92-237-130 124-111 275-384 42-77 65-114 41-69 81-94 41-25 107-25h18v-49h-344m-596,690h6q60-4 89-4 207,0 303,85t96,269q0,163-92,250-92,88-262,88-76,0-108-31t-32-106v-551z"
         horiz-adv-x="1359"
         unicode="R"
         id="glyph30" />
      <glyph
         d="m188,78-65-74h-27v438h45q14-191 119-301t272-110q131,0 221,84 91,85 91,207 0,168-302,279-46,17-69,26-181,69-259,163-77,94-77,238 0,179 121,298 122,120 301,120 146,0 289-89 38-24 49-24t26,10q15,11 33,31h29v-418h-41q-31,211-126,325-94,114-236,114-115,0-194-82-79-81-79-199 0-110 61-177 62-67 242-132 245-89 326-178 82-89 82-234 0-183-130-300-129-116-335-116-94,0-185,25t-182,76z"
         horiz-adv-x="1114"
         unicode="S"
         id="glyph32" />
      <glyph
         d="m866,172q0-77 27-102t100-25q5,0 18,1 14,1 21,1v-47h-540v47h32q79,0 107,24 28,25 28,101v1200h-53q-42,0-93-2-51-1-154-6l-66-4q-62-4-223-247-28-42-43-64l-27,18 82,387q54-17 113-25 60-8 159-8h31 784q100,0 160,8 61,8 115,25l82-387-27-18q-12,18-35,52-170,255-234,259l-63,4q-103,5-154,6-51,2-93,2h-54v-1200z"
         horiz-adv-x="1523"
         unicode="T"
         id="glyph34" />
      <glyph
         d="m72,1294q-13,36-33,53t-51,21l-54,6v47h545v-49l-61-6q-74-6-95-22-20-15-20-50 0-20 15-64 1-4 1-5l338-936 252,741-102,264q-15,36-37,54-21,19-49,20l-76,4v49h569v-49l-74-4q-53-3-79-21-25-18-25-55 0-15 13-55 3-9 4-13l301-935 227,805q3,11 10,33 27,94 27,133 0,58-37,84-36,26-122,28l-1,49h438v-47l-55-10q-67-15-100-54-33-38-62-130l-370-1209h-37l-334,969-328-969h-41l-497,1323z"
         horiz-adv-x="1773"
         unicode="W"
         id="glyph36" />
      <glyph
         d="m643,209v-16q0-101 27-123 28-21 125-21v-49h-514v49h14q85,0 111,21 26,22 26,129v10 434l-362,631q-32,55-65,76-32,22-83,25v46h510v-46q-79-3-110-17t-31-47q0-11 4-24 5-12 14-25l309-529 246,424q34,58 47,89 13,32 13,54 0,40-27,57-26,18-96,24v40h362v-47q-110-7-200-162-8-14-13-22l-307-512v-469z"
         horiz-adv-x="1058"
         unicode="Y"
         id="glyph38" />
      <glyph
         d="m551,172v309q-189-72-261-127-71-54-71-121 0-62 44-103 45-40 112-40 38,0 76,17 39,18 100,65m-6-51q-76-72-144-108t-131-36q-86,0-139,50-53,51-53,133 0,110 101,191t378,181v205q0,64-28,93-27,30-87,30-75,0-131-33-55-33-55-82 0-92-23-130-23-37-77-37-36,0-57,20t-21,55q0,84 143,176 143,93 287,93 113,0 160-58 47-57 47-241v-494q0-26 11-41 11-14 30-14 22,0 36,18 14,19 17,51h39q-9-78-51-120-41-41-111-41-61,0-98,36t-43,103z"
         horiz-adv-x="878"
         unicode="a"
         id="glyph40" />
      <glyph
         d="m326,731v-430q0-149 53-213 53-63 172-63 128,0 209,119 82,119 82,307 0,177-81,284t-212,107q-63,0-119-28-55-27-104-83m-156,436q0,66-19,95t-75,51v24q60,18 119,42 59,25 116,57h15v-639q80,64 151,91 72,27 154,27 170,0 275-124 106-123 106-324 0-218-126-352-125-133-329-133-127,0-270,52-35,13-43,13-6,0-12-5-5-5-11-15l-22-43h-29v1183z"
         horiz-adv-x="1087"
         unicode="b"
         id="glyph42" />
      <glyph
         d="m850,268q-60-140-156-216-96-75-215-75-172,0-288,133-115,133-115,336 0,205 122,340 123,136 308,136 131,0 229-71 99-70 99-161 0-30-24-52-23-22-54-22-61,0-91,118-4,15-6,22-17,64-49,91-31,27-86,27-123,0-204-104-80-104-80-264 0-178 90-294t223-116q84,0 151,47t115,140l31-15z"
         horiz-adv-x="909"
         unicode="c"
         id="glyph44" />
      <glyph
         d="m770,174v330q0,181-61,272-60,92-181,92t-196-110q-74-109-74-287 0-169 87-280t216-111q61,0 113,23 52,24 96,71m0,993q0,72-23,100-23,29-85,42v26q66,19 128,44t121,57h19v-1266q0-35 15-51 16-16 79-33v-23q-79-23-134-42-54-18-99-35h-19v135q-65-73-139-110-73-36-154-36-164,0-277,134-112,134-112,333 0,217 120,345 121,128 320,128 50,0 109-11 59-10 131-32v295z"
         horiz-adv-x="1114"
         unicode="d"
         id="glyph46" />
      <glyph
         d="m618,662q36,0 53,15t17,46q0,65-54,108-53,43-136,43-90,0-156-56-65-56-92-156h368m246-54h-622q-8-58-12-92-3-34-3-59 0-152 100-253 100-100 248-100 108,0 192,57 84,58 122,156l39-12q-49-154-164-243-114-89-264-89-183,0-305,127-121,128-121,322 0,226 122,362 123,136 330,136 148,0 261-87 114-87 114-184 0-22-8-32-8-9-29-9z"
         horiz-adv-x="995"
         unicode="e"
         id="glyph48" />
      <glyph
         d="m272-39q-46-28-71-71-25-44-25-99 0-98 73-148 74-51 218-51 195,0 293,48t98,143q0,80-58,116t-190,38h-172q-62,0-97,6-35,5-69,18m199,404q83,0 129,67 47,67 47,186 0,120-47,188t-129,68q-84,0-131-68-47-67-47-188 0-119 47-186t131-67m-162-25q-44-24-65-55-21-30-21-70 0-66 57-94 58-27 224-29l111-2q177-3 263-64 87-61 87-184 0-147-128-222-127-75-380-75-196,0-301,57-105,56-105,160 0,69 46,124 46,54 141,98-58,34-86,74-27,40-27,89 0,57 36,108 36,52 113,105-66,47-100,109-33,63-33,141 0,136 89,223 90,87 231,87 78,0 139-20 62-20 123-64 38,32 76,49 39,18 71,18 41,0 64-21 24-21 24-57 0-23-17-40-16-17-40-17-22,0-58,25-36,26-59,26-12,0-22-2-9-2-19-6 32-49 47-96 15-46 15-97 0-135-93-219-92-84-241-84-34,0-73,6t-89,19z"
         horiz-adv-x="964"
         unicode="g"
         id="glyph50" />
      <glyph
         d="m82,0v38q67,3 90,27t23,125v977q0,67-19,94-19,28-76,52v24q61,18 119,42 59,25 117,57h12v-678q71,86 139,125 69,39 152,39 149,0 219-101t70-317v-363q0-70 15-84 16-13 97-18v-39h-372v39q62,1 84,21t22,106v10 334q0,181-45,250-44,69-149,69-73,0-131-37-58-36-101-108v-526q0-80 22-100 22-19 91-19v-39h-379z"
         horiz-adv-x="1103"
         unicode="h"
         id="glyph52" />
      <glyph
         d="m166,1329q0,46 30,76 30,31 76,31 45,0 76-31t31-76q0-42-32-74t-75-32-75,31q-31,32-31,75m199-409v-762q0-80 22-100 22-19 90-19v-39h-387l1,39q68,3 89,27t21,124v461q0,67-19,94-19,28-76,52v24q61,18 119,42 59,25 117,57h23z"
         horiz-adv-x="561"
         unicode="i"
         id="glyph54" />
      <glyph
         d="m152,1329q0,46 30,76 30,31 76,31 45,0 77-32 32-31 32-75 0-42-33-74t-76-32-75,31q-31,32-31,75m194-409v-889q0-227-78-352-77-125-215-125-65,0-107,31-42,30-42,77 0,36 21,56t59,20q48,0 93-57 45-58 60-58 29,0 40,34 11,33 11,128v866q0,66-19,93t-77,53v24q61,18 119,42 59,25 117,57h18z"
         horiz-adv-x="514"
         unicode="j"
         id="glyph56" />
      <glyph
         d="m80,0v39q73,3 93,27t20,124v977q0,69-20,95-19,26-75,51v24q61,18 119,42 59,25 117,57h14v-928l295,225q21,17 34,35t13,31q0,30-74,42-16,3-27,5l-65,12v37h455v-37q-131-29-223-101-3-2-4-3l-203-158 342-434q51-66 97-95 47-28 102-28v-39h-463v39l51,6q30,5 44,15 15,11 15,28 0,9-4,16-3,8-10,17l-293,389-82-64v-288q0-81 21-100 22-19 90-19v-39h-379z"
         horiz-adv-x="1067"
         unicode="k"
         id="glyph58" />
      <glyph
         d="m358,158q0-81 22-100t89-19v-39h-379l1,39q69,3 90,27 22,24 22,124v977q0,69-20,95-19,26-74,51v24q60,18 118,42 59,25 117,57h14v-1278z"
         horiz-adv-x="555"
         unicode="l"
         id="glyph60" />
      <glyph
         d="m94,0 1,39q68,3 89,28 21,26 21,123v461q0,65-19,93t-77,53v24q60,18 118,42 59,25 117,57h10v-162q71,89 138,126 67,38 157,38 97,0 165-50 69-49 95-137 69,99 138,143 70,44 157,44 83,0 148-41t104-117q18-33 25-76 8-42 8-127v-57-385q0-45 22-62 22-16 88-18v-39h-364v38q62,2 82,22 20,21 20,116v375q0,149-46,212-45,64-150,64-67,0-125-41-57-41-94-116v-551q0-45 22-62 22-16 90-18v-39h-366v39h8q56,0 76,25 20,26 20,112v377q0,146-47,210t-152,64q-66,0-123-41-57-40-96-116v-512q0-79 22-99t89-20v-39h-371z"
         horiz-adv-x="1662"
         unicode="m"
         id="glyph62" />
      <glyph
         d="m90,39q80,6 96,23 17,18 17,104v24l-2,461q0,67-19,94-19,28-76,52v24q64,20 121,44 58,24 115,55h18l-4-162q77,90 143,127 67,37 148,37 149,0 218-100t69-318v-389q0-43 16-57 17-14 98-19l1-39h-375v39q73,5 89,17 17,13 17,59v61 377q0,142-47,209t-147,67q-72,0-129-36t-101-109v-526q0-82 22-101 22-18 89-18v-39h-377v39z"
         horiz-adv-x="1114"
         unicode="n"
         id="glyph64" />
      <glyph
         d="m492,25q116,0 182,113 67,113 67,311 0,199-66,310t-183,111-184-112q-66-112-66-309 0-200 66-312 67-112 184-112m421,424q0-213-117-344-116-130-304-130-189,0-305,130-115,130-115,344 0,213 115,342t305,129q189,0 305-130 116-129 116-341z"
         horiz-adv-x="983"
         unicode="o"
         id="glyph66" />
      <glyph
         d="m346,766v-346q0-218 51-305 52-86 172-86 124,0 209,110 86,111 86,277 0,184-94,304t-233,120q-49,0-94-18-45-17-97-56m0-1049q0-75 26-97 27-23 126-23v-37h-420v37q74,4 93,20 19,15 19,78v55 901q0,65-19,93t-77,53v24q61,18 119,42 59,25 117,57h16v-103q66,49 133,72 68,24 142,24 184,0 294-121 111-121 111-325 0-209-138-350-137-140-343-140-50,0-99,9-48,8-100,26v-295z"
         horiz-adv-x="1114"
         unicode="p"
         id="glyph68" />
      <glyph
         d="m91,39q70,3 91,27 21,25 21,124v461q0,67-20,94t-77,52v24q69,23 127,47t109,52h14v-148q47,74 103,114t112,40q49,0 77-27t28-74q0-33-20-54t-50-21q-21,0-65,17-43,17-68,17-36,0-69-24-32-24-48-64v-538q0-82 24-101 25-18 120-18v-39h-410l1,39z"
         horiz-adv-x="688"
         unicode="r"
         id="glyph70" />
      <glyph
         d="m102,45v252h41q29-146 81-210t138-64q79,0 129,51 50,52 50,131 0,60-36,104t-140,99q-164,83-208,137-44,55-44,133 0,106 80,174 81,68 210,68 65,0 127-18 63-17 123-52v-217h-41q-14,112-76,180t-147,68q-68,0-110-36-41-36-41-95 0-85 126-154 9-5 15-8 16-9 50-27 263-141 263-299 0-125-96-205t-246-80q-65,0-128,18-62,17-120,50z"
         horiz-adv-x="792"
         unicode="s"
         id="glyph72" />
      <glyph
         d="m221,793h-115v20q71,52 134,109 63,58 120,122h17v-149h301l-53-102h-248v-523q0-103 32-147 33-43 107-43 36,0 78,21 43,21 84,59l18-23q-50-76-119-117-68-40-147-40-114,0-162,64-47,64-47,269v480z"
         horiz-adv-x="755"
         unicode="t"
         id="glyph74" />
      <glyph
         d="m915,895v-694q0-66 17-82 18-15 78-19v-24q-53-18-111-40-57-22-125-50h-14v153q-75-92-141-128-65-36-152-36t-153,40-99,112q-18,39-26,87-7,49-7,146v33 383q0,47-20,62-20,16-94,20v37h268v-512q0-187 45-251t156-64q67,0 125,41 59,42 98,118v510q0,77-20,99t-81,22h-10v37h266z"
         horiz-adv-x="1101"
         unicode="u"
         id="glyph76" />
      <glyph
         d="m422-18-295,784q-19,50-46,67-26,18-83,21v41h416v-41h-23q-60,0-84-11-24-10-24-34 0-7 4-23t12-41l207-559 246,559q6,16 9,29 3,14 3,27 0,21-17,33-17,13-51,16l-53,4v41h303v-41q-91-10-154-152-9-20-14-31l-311-689h-45z"
         horiz-adv-x="935"
         unicode="v"
         id="glyph78" />
      <glyph
         d="m-24,858-1,37h437v-37l-49-4q-55-3-76-15t-21-38q0-8 4-19t13-27l286-538 172,514q5,15 8,31t3,31q0,37-30,51-29,14-118,14v37h346v-37q-65-6-93-27-28-20-56-98l-334-944-2-6q-79-225-184-225-41,0-65,25-23,24-23,65 0,34 23,57 24,23 60,23 11,0 34-5 24-6 36-6 26,0 42,14 16,13 28,46l86,246-396,725q-35,65-62,86t-68,24z"
         horiz-adv-x="933"
         unicode="y"
         id="glyph80" />
      <glyph
         d="m57,0v12l553,842h-176-18q-139,0-189-40-50-39-112-159l-43,9 67,231h680v-12l-551-838h193q120,0 162,8 43,8 61,29 32,35 71,93t72,122l31-14-63-283h-738z"
         horiz-adv-x="913"
         unicode="z"
         id="glyph82" />
      <glyph
         d="m174,944q80,72 115,122 35,51 35,95 0,40-63,61-17,6-26,9-52,19-76,46-24,28-24,69 0,44 31,72t80,28q70,0 117-60 47-59 47-151 0-90-51-171t-154-157l-31,37z"
         horiz-adv-x="516"
         id="glyph84" />
      <glyph
         d="m735,1411q-82-74-117-124-34-50-34-93 0-40 63-61 15-5 25-9 52-19 77-48 25-28 25-68 0-45-31-73-30-28-79-28-71,0-119,60-47,60-47,151 0,89 51,170t156,158l30-35m-385,0q-80-72-115-123-34-50-34-94 0-40 63-61 15-5 25-9 52-19 77-48 25-28 25-68 0-45-31-73-30-28-79-28-71,0-119,60-47,60-47,151 0,90 50,171 51,81 154,157l31-35z"
         horiz-adv-x="901"
         id="glyph86" />
      <glyph
         d="m557,944q82,74 117,124t35,93q0,40-63,61-17,6-26,9-52,19-77,47t-25,68q0,44 31,72t80,28q71,0 118-60 48-60 48-151 0-89-52-170-51-81-155-158l-31,37m-383,0q80,72 115,122 35,51 35,95 0,40-63,61-17,6-26,9-52,19-76,46-24,28-24,69 0,44 31,72t80,28q70,0 117-60 47-59 47-151 0-90-51-171t-154-157l-31,37z"
         horiz-adv-x="901"
         id="glyph88" />
      <glyph
         d="m788,1438h183l141-400 148,400h174v-25l-30-2q-22-2-34-16-12-13-12-37v-373q0-24 12-38 12-13 34-15l30-2v-27h-236v27l31,2q21,2 33,16t12,37v395l-178-479h-15l-174,479v-395q0-23 12-37 13-14 35-16l31-2v-27h-197v27l34,2q21,2 32,16 12,14 12,37v371q0,23-13,37-12,14-34,16l-31,2v27m-532,0h440l11-178h-25q-8,79-41,115-32,36-96,36h-21v-426q0-23 12-37t33-16l31-2v-27h-248v27l31,2q21,1 33,15 12,15 12,38v426h-20q-64,0-97-36t-41-115h-26l12,178z"
         horiz-adv-x="1683"
         id="glyph90" />
    </font>
    <font
       horiz-adv-x="0"
       id="font158">
      <font-face
         font-family="fnt1"
         ascent="626"
         descent="-142"
         units-per-em="1000"
         id="font-face94" />
      <missing-glyph
         horiz-adv-x="1.1346e-306"
         id="missing-glyph96" />
      <glyph
         d="m0,0z"
         horiz-adv-x="600"
         id="glyph98" />
      <glyph
         d="m365,572h-125l17-390h90l18,390m28-507c0,39-35,76-91,76-60,0-91-42-91-77 0-55 57-76 92-76 50,0 90,31 90,77z"
         horiz-adv-x="600"
         unicode="!"
         id="glyph100" />
      <glyph
         d="m385,163h-145l-87-263h110l122,263z"
         horiz-adv-x="600"
         unicode=","
         id="glyph102" />
      <glyph
         d="m596,0v93h-56l-196,479h-241v-93h123l-163-386h-59v-93h238v93h-86l29,68h232l29-68h-83v-93h233m-216,254h-156l78,185 78-185z"
         horiz-adv-x="600"
         unicode="A"
         id="glyph104" />
      <glyph
         d="m567,77-56,68c-32-22-103-65-183-65-130,0-183,103-183,208 0,153 110,204 181,204 52,0 103-20 146-47v-95h92v233h-92v-42c-13,10-64,42-147,42-158,0-273-124-273-294 0-115 65-301 279-301 39,0 160,20 236,89z"
         horiz-adv-x="600"
         unicode="C"
         id="glyph106" />
      <glyph
         d="m512,0v93h-162v386h162v93h-422v-93h165v-386h-165v-93h422z"
         horiz-adv-x="600"
         unicode="I"
         id="glyph108" />
      <glyph
         d="m545,379c0,48-13,93-44,129-43,49-114,64-180,64h-260v-93h78v-386h-79v-93h293v93h-122v102h117c119,0 197,81 197,184m-92,3c0-46-25-71-44-80-30-14-65-14-99-14h-79v191h90c25,0 56-3 80-14 32-15 52-47 52-83z"
         horiz-adv-x="600"
         unicode="P"
         id="glyph110" />
      <glyph
         d="m532,164c0,29-8,59-23,82-52,78-153,67-234,79-26,4-92,15-92,75 0,43 46,91 128,91 38,0 76-11 109-27v-96h92v215h-92v-23c-33,15-73,23-113,23-143,0-217-101-217-183 0-47 21-91 61-122 57-44 135-43 209-49 50-4 81-21 81-65 0-49-39-85-136-85-50,0-97,16-139,41v76h-92v-209h92v36c20-9 65-36 139-36 124,0 227,67 227,177z"
         horiz-adv-x="600"
         unicode="S"
         id="glyph112" />
      <glyph
         d="m598,479v93h-262v-93h94v-264c0-87-23-134-123-134-109,0-117,64-117,117v281h92v93h-262v-93h78v-272c0-72 7-141 76-185 46-29 87-34 135-34 43,0 84,10 122,27 64,29 91,103 91,171v293h76z"
         horiz-adv-x="600"
         unicode="U"
         id="glyph114" />
      <glyph
         d="m601,479v93h-247v-93h90l-136-358-140,358h77v93h-246v-93h74l187-479h93l181,479h67z"
         horiz-adv-x="600"
         unicode="V"
         id="glyph116" />
      <glyph
         d="m606,479v93h-228v-93h93l-34-284-101,271h-66l-100-273-35,286h92v93h-229v-93h47l64-479h79l113,301 115-301h78l65,479h47z"
         horiz-adv-x="600"
         unicode="W"
         id="glyph118" />
      <glyph
         d="m564,0v93h-77v166c0,37 0,77-15,109-37,80-149,80-169,80-73,0-148-25-212-52l36-80c55,22 113,39 172,39 24,0 98-2 98-62v-12c-34,4-73,7-108,7-222,0-231-137-231-156 0-65 60-144 172-144 44,0 94,14 122,31 0,0 30,19 45,28v-47h167m-167,158c-46-43-103-77-168-77-40,0-79,18-79,50 0,49 74,65 125,65 56,0 93-6 122-8v-30z"
         horiz-adv-x="600"
         unicode="a"
         id="glyph120" />
      <glyph
         d="m553,219c0,117-96,229-232,229-52,0-103-17-141-51v224h-171v-93h79v-435h-78v-93h170v38c37-27 73-50 144-50 140,0 229,116 229,231m-93,1c0-77-62-140-143-140-42,0-140,26-140,136 0,73 42,139 142,139s141-85 141-135z"
         horiz-adv-x="600"
         unicode="b"
         id="glyph122" />
      <glyph
         d="m543,81-52,71c-55-40-107-72-183-72-79,0-157,45-157,137 0,79 61,139 161,139 38,0 76-10 107-25v-79h91v196h-91v-19c-34,13-70,19-107,19-173,0-253-121-253-230 0-147 120-230 241-230 92,0 177,39 243,93z"
         horiz-adv-x="600"
         unicode="c"
         id="glyph124" />
      <glyph
         d="m590,0v93h-76v528h-211v-93h119v-129c-37,33-91,49-144,49-137,0-233-110-233-231 0-123 100-229 237-229 52,0 103,16 142,48v-36h166m-168,216c0-119-109-135-142-135-77,0-142,60-142,138s63,136 146,136c51,0 107-30 124-71 9-20 14-44 14-68z"
         horiz-adv-x="600"
         unicode="d"
         id="glyph126" />
      <glyph
         d="m559,61-42,76c-61-31-131-57-204-57-118,0-150,62-155,96h381c1,10 3,45 3,66 0,122-105,205-231,205-115,0-246-78-246-232 0-118 84-227 248-227 87,0 175,31 246,73m-107,208h-287c20,58 83,85 141,85 56,0 116-15 142-70l4-15z"
         horiz-adv-x="600"
         unicode="e"
         id="glyph128" />
      <glyph
         d="m588,0v93h-77v189c0,32-4,63-17,91-6,13-37,74-138,74-57,0-102-21-148-47v221h-169v-93h77v-435h-77v-93h244v93h-75v204c68,49 120,58 147,58 52,0 64-33 64-66v-196h-76v-93h245z"
         horiz-adv-x="600"
         unicode="h"
         id="glyph130" />
      <glyph
         d="m350,493v149h-106v-149h106m164-493v93h-164v341h-233v-93h140v-248h-167v-93h424z"
         horiz-adv-x="600"
         unicode="i"
         id="glyph132" />
      <glyph
         d="m579,0v93h-101c-41,50-120,124-161,157l124,92h101v93h-256v-93h19l-88-61v340h-168v-93h76v-435h-75v-93h167v178l33,23c39-32 81-69 115-108h-26v-93h240z"
         horiz-adv-x="600"
         unicode="k"
         id="glyph134" />
      <glyph
         d="m515,0v93h-166v528h-251v-93h158v-435h-165v-93h424z"
         horiz-adv-x="600"
         unicode="l"
         id="glyph136" />
      <glyph
         d="m615,0v93h-57v219c0,74-49,135-130,135-41,0-82-18-108-48-26,41-63,48-86,48-31,0-61-12-80-35v22h-169v-93h77v-248h-77v-93h247v93h-78v228c18,17 41,33 65,33 37,0 45-31 45-51v-303h152v93h-60v220c24,32 51,41 68,41 33,0 42-28 42-38v-316h149z"
         horiz-adv-x="600"
         unicode="m"
         id="glyph138" />
      <glyph
         d="m576,0v93h-75v213c0,31-10,60-25,85-31,42-79,56-131,56-54,0-110-18-151-45v32h-171v-93h79v-248h-77v-93h247v93h-78v207c49,43 113,55 142,55 67,0 73-31 73-70v-192h-76v-93h243z"
         horiz-adv-x="600"
         unicode="n"
         id="glyph140" />
      <glyph
         d="m555,218c0,113-82,230-254,230-130,0-257-79-257-232 0-169 153-228 262-228 115,0 249,68 249,230m-93,2c0-97-80-139-158-139-59,0-166,26-166,136 0,85 71,138 160,138 119,0 164-75 164-135z"
         horiz-adv-x="600"
         unicode="o"
         id="glyph142" />
      <glyph
         d="m558,221c0,157-134,226-231,226-53,0-107-17-145-49v35h-170v-93h78v-430h-76v-93h310v93h-142v128c20-15 72-50 149-50 132,0 227,104 227,233m-92-2c0-83-68-139-141-139-44,0-147,27-147,139 0,115 108,135 148,135 74,0 140-48 140-135z"
         horiz-adv-x="600"
         unicode="p"
         id="glyph144" />
      <glyph
         d="m569,334c0,19-6,36-12,52-9,25-39,62-108,62s-129-44-179-84v70h-201v-93h108v-248h-107v-93h382v93h-182v159c36,30 72,58 113,81 20,11 44,22 66,22 25,0 29-10 32-35l88,14z"
         horiz-adv-x="600"
         unicode="r"
         id="glyph146" />
      <glyph
         d="m524,132c0,73-56,117-120,122l-125,10c-24,2-91,8-91,45 0,41 85,46 107,46 41,0 85-9 118-25v-56h92v174h-92v-23c-36,14-82,23-126,23-87,0-187-38-187-137 0-121 140-131 210-137 36-3 80,2 111-15 11-6 14-16 14-27 0-34-63-51-116-51-66,0-115,16-140,25v70h-92v-188h92v29c43-17 94-29 145-29 111,0 200,56 200,144z"
         horiz-adv-x="600"
         unicode="s"
         id="glyph148" />
      <glyph
         d="m547,48-16,92c-36-16-136-60-201-60-75,0-80,44-80,87v174h238v93h-238v133h-93v-133h-63v-93h63v-196c0-137 102-157 172-157 76,0 153,32 218,60z"
         horiz-adv-x="600"
         unicode="t"
         id="glyph150" />
      <glyph
         d="m573,0v93h-77v341h-168v-93h76v-201c-33-31-70-61-130-61-80,0-83,54-83,77v278h-169v-93h78v-183c0-38 4-60 10-77 23-66 99-93 162-93 50,0 95,18 132,43v-31h169z"
         horiz-adv-x="600"
         unicode="u"
         id="glyph152" />
      <glyph
         d="m581,0v93h-80l-142,134 118,114h79v93h-215v-93h17l-58-56-62,56h20v93h-226v-93h82l122-116-136-132h-82v-93h232v93h-29l77,76 78-76h-27v-93h232z"
         horiz-adv-x="600"
         unicode="x"
         id="glyph154" />
      <glyph
         d="m589,341v93h-218v-93h44l-123-206-110,206h47v93h-222v-93h73l160-294-83-137h-110v-93h278v93h-65l256,431h73z"
         horiz-adv-x="600"
         unicode="y"
         id="glyph156" />
    </font>
</defs>
</svg>
