<?xml version="1.0" encoding="UTF-8" standalone="no"?>
<!-- Uploaded to: SVG Repo, www.svgrepo.com, Generator: SVG Repo Mixer Tools -->

<svg
   fill="#000000"
   height="800px"
   width="800px"
   version="1.1"
   id="Layer_1"
   viewBox="0 0 512 512"
   xml:space="preserve"
   sodipodi:docname="mp-runko.svg"
   inkscape:version="1.1 (c68e22c387, 2021-05-23)"
   xmlns:inkscape="http://www.inkscape.org/namespaces/inkscape"
   xmlns:sodipodi="http://sodipodi.sourceforge.net/DTD/sodipodi-0.dtd"
   xmlns="http://www.w3.org/2000/svg"
   xmlns:svg="http://www.w3.org/2000/svg"><sodipodi:namedview
   id="namedview6"
   pagecolor="#ffffff"
   bordercolor="#999999"
   borderopacity="1"
   inkscape:pageshadow="0"
   inkscape:pageopacity="0"
   inkscape:pagecheckerboard="0"
   showgrid="false"
   inkscape:snap-global="false"
   inkscape:zoom="0.97375"
   inkscape:cx="400"
   inkscape:cy="400"
   inkscape:window-width="2560"
   inkscape:window-height="1377"
   inkscape:window-x="-8"
   inkscape:window-y="-8"
   inkscape:window-maximized="1"
   inkscape:current-layer="Layer_1" /><defs
   id="defs11">
	

		
	</defs>
<path
   d="m 471.45356,281.5403 c 18.401,0 33.371,-14.97 33.371,-33.371 0,-18.401 -14.97,-33.371 -33.371,-33.371 -6.578,0 -12.712,1.92 -17.886,5.22 -4.653,-30.831 -16.831,-59.225 -34.591,-83.257 6.027,-1.315 11.76,-4.301 16.435,-8.977 13.011,-13.011 13.011,-34.183001 0,-47.194001 -13.01,-13.011 -34.182,-13.012 -47.194,0 -4.677,4.677 -7.662,10.409 -8.977,16.435001 -24.032,-17.761001 -52.426,-29.938001 -83.257,-34.592001 3.299,-5.174 5.22,-11.308 5.22,-17.886 -0.002,-18.404 -14.972,-33.374 -33.373,-33.374 -18.401,0 -33.372,14.97 -33.372,33.371 0,6.578 1.921,12.712 5.22,17.886 -30.831,4.653 -59.225,16.832 -83.256,34.592001 -1.315,-6.027001 -4.302,-11.760001 -8.977,-16.435001 -13.01,-13.011 -34.182,-13.012 -47.194,0 -13.011,13.011 -13.011,34.183001 0,47.194001 4.677,4.677 10.408,7.662 16.435,8.978 -17.761,24.032 -29.938,52.426 -34.591,83.256 -5.174,-3.299 -11.308,-5.22 -17.886,-5.22 -18.401,0 -33.371,14.97 -33.371,33.371 0,18.401 14.97,33.371 33.371,33.371 6.578,0 12.712,-1.92 17.886,-5.22 4.653,30.831 16.832,59.225 34.591,83.256 -6.027,1.315 -11.758,4.301 -16.435,8.977 -13.011,13.011 -13.011,34.183 0,47.194 6.506,6.506 15.051,9.758 23.596,9.758 8.547,0 17.092,-3.253 23.598,-9.758 4.677,-4.677 5.69024,-9.75074 7.00524,-15.77774 83.27395,60.04677 152.99477,40.2646 224.78876,-0.65726 1.315,6.027 4.301,11.758 8.977,16.435 6.506,6.506 15.051,9.758 23.596,9.758 8.547,0 17.092,-3.253 23.598,-9.758 13.011,-13.011 13.011,-34.183 0,-47.194 -4.676,-4.677 -10.408,-7.662 -16.435,-8.977 17.761,-24.032 29.938,-52.426 34.591,-83.256 5.175,3.301 11.308,5.223 17.887,5.223 z m 0,-49.149 c 8.699,0 15.776,7.077 15.776,15.776 0,8.699 -7.077,15.776 -15.776,15.776 -8.699,0 -15.776,-7.077 -15.776,-15.776 0,-8.699 7.077,-15.776 15.776,-15.776 z m -407.247,31.553 c -8.699,0 -15.776,-7.077 -15.776,-15.776 0,-8.699 7.077,-15.776 15.776,-15.776 8.699,0 15.776,7.077 15.776,15.776 0,8.699 -7.077,15.776 -15.776,15.776 z m 336.451,-170.915001 c 3.076,-3.076 7.116,-4.613 11.155,-4.613 4.039,0 8.08,1.538 11.155,4.613 6.151,6.151001 6.151,16.160001 0,22.312001 -6.151,6.15 -16.158,6.151 -22.311,0 -6.15,-6.152 -6.15,-16.161 10e-4,-22.312001 z m -18.881,28.754001 -14.948,14.947 c -24.303,-21.613 -55.69,-35.416 -90.197,-37.435 V 78.142299 c 40.325,2.063 76.986,18.228001 105.145,43.641001 z m -113.948,84.69 c -178.552373,-137.648867 -89.27619,-68.82443 0,0 z m 8.803,-16.939 v -72.609 c 29.66,1.969 56.662,13.809 77.741,32.262 l -51.321,51.321 c -7.619,-5.647 -16.631,-9.511 -26.42,-10.974 z m -17.594,0 h -10e-4 c -9.792,1.463 -18.808,5.328 -26.429,10.976 l -51.32,-51.32 c 21.08,-18.455 48.086,-30.297 77.75,-32.264 z m -38.873,23.419 c -5.643,7.618 -9.506,16.629 -10.969,26.417 h -72.609 c 1.968,-29.659 13.806,-56.659 32.257,-77.737 z m -10.969,44.012 c 1.463,9.79 5.328,18.804 10.974,26.425 l -53.29476,47.37348 c -18.453,-21.08 -28.31924,-44.13848 -30.28724,-73.79848 z m 47.92671,123.02106 c 0,0 -44.89367,-5.84453 -68.60393,-33.49831 l 43.32219,-48.52633 27.45435,10.19399 z m 45.92429,-84.15406 47.38048,50.00249 c -23.47902,29.68896 -75.47909,34.08873 -75.47909,34.08873 l 1.89544,-72.95068 c 0,0 21.14402,-1.79496 26.20317,-11.14054 z m 12.443,-12.441 c 5.647,-7.621 9.512,-16.636 10.975,-26.427 h 72.608 c -1.968,29.661 -13.808,56.663 -32.26,77.743 z m 10.975,-44.023 v 0.001 c -1.463,-9.788 -5.327,-18.8 -10.971,-26.42 l 51.321,-51.321 c 18.452,21.079 30.291,48.081 32.259,77.74 z m -58.634,-210.600001 c 8.699,0 15.776,7.077 15.776,15.776 0,8.699 -7.077,15.776 -15.776,15.776 -8.699,0 -15.777,-7.077 -15.777,-15.776 0,-8.699 7.078,-15.776 15.777,-15.776 z m -8.794,49.374 V 99.2953 c -34.51,2.016 -65.903,15.821 -90.208,37.437 l -14.947,-14.947 c 28.162,-25.415 64.826,-41.581001 105.155,-43.643001 z m -146.345,37.199001 c -6.151,-6.152 -6.151,-16.161 0,-22.312001 3.076,-3.076 7.116,-4.613 11.155,-4.613 4.04,0 8.08,1.538 11.155,4.613 6.151,6.151001 6.151,16.160001 0,22.312001 -6.151,6.15 -16.158,6.151 -22.31,0 z m 28.749,18.886 14.947,14.948 c -21.612,24.302 -35.412,55.689 -37.43,90.195 h -21.153 c 2.063,-40.323 18.225,-76.983 43.636,-105.143 z m -6.438,269.079 c -6.151,6.15 -16.158,6.151 -22.311,0 -6.151,-6.151 -6.151,-16.16 0,-22.311 3.076,-3.076 7.116,-4.614 11.155,-4.614 4.04,0 8.08,1.538 11.155,4.614 6.152,6.152 6.152,16.16 10e-4,22.311 z m 6.437,-41.198 c -25.411,-28.161 -41.573,-64.82 -43.635,-105.144 h 21.153 c 2.018,34.507 15.818,65.895 37.43,90.197 z m 11.12649,13.10025 16.26251,-15.60425 c 14.27563,8.89094 55.27666,34.61174 86.40216,39.18527 2.34262,0.34422 0.44629,20.51503 0.44629,20.51503 -60.78376,-7.55796 -91.60141,-38.02976 -103.11096,-44.09605 z m 214.26251,-19.54677 14.949,18.89052 c -32.3369,33.08823 -107.05531,45.55727 -107.05531,45.55727 l -1.15352,-19.70768 c 0,0 71.98501,-10.37095 93.25983,-44.74011 z m 56.14,25.33452 c 6.151,6.151 6.151,16.16 0,22.311 -6.151,6.15 -16.158,6.151 -22.311,0 -6.151,-6.151 -6.151,-16.16 0,-22.311 3.076,-3.076 7.116,-4.614 11.155,-4.614 4.039,0 8.081,1.538 11.156,4.614 z m -28.751,-18.885 -14.948,-14.947 c 21.613,-24.303 35.415,-55.693 37.432,-90.2 h 21.153 c -2.061,40.326 -18.224,76.986 -43.637,105.147 z m 22.485,-122.74 v -0.001 c -2.018,-34.507 -15.819,-65.896 -37.432,-90.197 l 14.947,-14.947 c 25.412,28.161 41.575,64.82 43.639,105.145 z"
   id="path2"
   sodipodi:nodetypes="sssccccscccsscccssccssscccssccccsccccssssssssssssssccscccccccccccccccccccccccccccccccccccccccccccccccccsssssccccccssscccccccccsscccccccccsscccccccccsscccccccscccc" />
<ellipse
   style="fill:#000000;fill-opacity:0;fill-rule:evenodd;stroke:#000000;stroke-width:7.95948;stroke-linecap:round;stroke-linejoin:round;stroke-opacity:1;paint-order:stroke fill markers"
   id="path8541"
   cx="266.33847"
   cy="453.17587"
   rx="26.234823"
   ry="22.770964" /><ellipse
   style="fill:#000000;fill-opacity:0;fill-rule:evenodd;stroke:#000000;stroke-width:12.0945;stroke-linecap:round;stroke-linejoin:round;stroke-opacity:1;paint-order:stroke fill markers"
   id="path11025"
   ry="20.703466"
   rx="21.032093"
   cy="456.46216"
   cx="267.50192" /><path
   style="fill:#000000;fill-opacity:0;fill-rule:evenodd;stroke:#000000;stroke-width:12.0945;stroke-linecap:round;stroke-linejoin:round;stroke-opacity:1;paint-order:stroke fill markers"
   id="path11027"
   sodipodi:type="arc"
   sodipodi:cx="267.83054"
   sodipodi:cy="452.19"
   sodipodi:rx="26.618742"
   sodipodi:ry="30.233633"
   sodipodi:start="0"
   sodipodi:end="6.2587999"
   sodipodi:open="true"
   sodipodi:arc-type="arc"
   d="m 294.44928,452.19 a 26.618742,30.233633 0 0 1 -26.45647,30.23307 26.618742,30.233633 0 0 1 -26.77904,-29.86445 26.618742,30.233633 0 0 1 26.12996,-30.59719 26.618742,30.233633 0 0 1 27.09763,29.49139" /></svg>
