<?xml version="1.0" encoding="UTF-8" standalone="no"?>
<svg
   xmlns:dc="http://purl.org/dc/elements/1.1/"
   xmlns:cc="http://creativecommons.org/ns#"
   xmlns:rdf="http://www.w3.org/1999/02/22-rdf-syntax-ns#"
   xmlns:svg="http://www.w3.org/2000/svg"
   xmlns="http://www.w3.org/2000/svg"
   viewBox="0 0 346.49332 290.65332"
   height="290.65332"
   width="346.49332"
   xml:space="preserve"
   id="svg2"
   version="1.1"><metadata
     id="metadata8"><rdf:RDF><cc:Work
         rdf:about=""><dc:format>image/svg+xml</dc:format><dc:type
           rdf:resource="http://purl.org/dc/dcmitype/StillImage" /></cc:Work></rdf:RDF></metadata><defs
     id="defs6" /><g
     transform="matrix(1.3333333,0,0,-1.3333333,0,290.65333)"
     id="g10"><g
       transform="scale(0.1)"
       id="g12"><path
         id="path14"
         style="fill:#9ed629;fill-opacity:1;fill-rule:nonzero;stroke:none"
         d="m 2456.1,888.684 c 31.23,21.812 196.58,87.8 73.65,124.116 -65.49,19.35 -193.59,-72.351 -228.46,-123.132 -25.68,83.223 -140.8,162.222 -165.17,75.879 -11.94,-57.168 24.7,-85.332 72.42,-99.043 14.41,-121.953 -106.47,-140.762 -136.64,-144.531 -52.81,-6.602 -100.84,2.48 -150.61,27.773 0,0 -40.13,25.567 -66.33,53.379 -9.14,9.707 -35.01,49.992 -46.64,97.227 -16.23,65.898 -8.36,124.668 22,158.038 53.75,59.09 196.07,55.28 194.33,140.05 -3.79,184.19 -186.83,258.73 -254.37,265.82 -261.31,27.35 -808.014,25 -928.405,18.94 -345.43,-17.36 -263.652,-340.8 -253.457,-401.89 25.781,-154.494 47.734,-180.04 73.926,-326.681 0.039,-0.703 3.222,-16.621 -0.977,-31.981 -46.308,-21.574 -91.465,-29.668 -140.801,-23.527 -30.195,3.77 -151.074,22.578 -136.601,144.531 47.656,13.719 84.336,41.895 72.383,99.075 -24.375,86.313 -139.473,7.312 -165.157,-75.891 C 256.309,917.598 128.223,1009.29 62.7344,989.961 -60.2148,953.633 105.156,887.637 136.406,865.84 77.8516,869.641 30.8594,872.117 20.3125,826.055 3.53516,752.852 102.441,752.664 148.75,770.059 117.871,745.371 67.8125,694.941 110.449,669.707 c 44.239,-26.18 137.149,18.516 166.25,45.664 3.418,-8.914 33.535,-52.383 39.395,-60.754 3.828,-5.426 -20.586,-70.328 -15.899,-75.504 58.418,-64.277 181.953,-55.722 250.391,-55.586 45.332,0.137 114.57,24.961 119.219,19.864 18.398,-104.739 -14.766,-396.621 -26.7,-493.8285 -2.792,-16.6406 -1.23,-29.9219 10.645,-30.8594 9.297,0.0586 118.789,-0.1367 135.059,0 217.971,1.6211 1077.421,-0.5273 1111.881,0.0196 1.91,0.0273 10.54,2.4023 13.53,13.8086 3.01,11.3945 0.37,31.8359 -2.89,42.9882 -41.13,175.7615 -36.95,354.7225 -37.24,482.4025 64.39,-65.352 392.48,-14.258 449.62,51.914 2.02,2.344 -27.83,94.609 -25.97,96.98 7.71,10.02 13.87,20.508 18.03,31.387 29.12,-27.109 122.03,-71.816 166.27,-45.633 42.65,25.215 -7.43,75.625 -38.31,100.34 46.33,-17.402 145.22,-17.207 128.42,55.996 -10.51,46.067 -57.54,43.574 -116.05,39.778" /><path
         id="path16"
         style="fill:#d22027;fill-opacity:1;fill-rule:nonzero;stroke:none"
         d="m 1202.56,1461.89 c -68.99,-4.25 -196.39,-14.28 -226.74,41.51 -5.82,11.07 1.192,10.98 4.16,10.81 33.2,-1.96 58.28,-0.63 93.28,0.59 5.8,52.64 -20.82,163.27 -8.73,190.88 9.22,21.04 158.09,24.47 172.77,10.96 29.75,-65.04 14.28,-177.09 17.78,-191.23 20.96,-2.12 43.09,-1.41 121.94,-7.83 4.21,-23.75 -75.47,-49.65 -174.46,-55.69" /><path
         id="path18"
         style="fill:#de6523;fill-opacity:1;fill-rule:nonzero;stroke:none"
         d="m 1693.46,789.152 c 19.47,72.989 -0.04,151.297 -112.15,78.192 -70.76,-46.133 -121.15,-69.922 -208.14,-76.141 -86.67,-8.723 -148.19,7.215 -225.79,40.555 -170.525,73.34 -86.87,-111.524 -44.7,-151.738 62.32,-59.422 168.24,-99.305 276.78,-92.098 3.14,0.215 6.44,0.43 9.74,0.703 v -0.039 c 0.12,0 0.3,0.059 0.41,0.059 0.16,0.019 0.32,0.019 0.43,0.019 v 0.039 c 3.3,0.313 6.62,0.625 9.75,0.977 108.26,11.445 215.96,68.047 259.51,129.695 13.16,18.633 26.62,41.582 34.16,69.777" /><path
         id="path20"
         style="fill:#231f20;fill-opacity:1;fill-rule:nonzero;stroke:none"
         d="m 1565.92,815.703 c -61.11,-32.148 -111.01,-51.086 -185.82,-56.68 -74.49,-7.246 -127.17,1.875 -192.39,24.161 -156.13,53.339 -76.67,-73.926 -41.19,-99.18 52.46,-37.41 142.66,-61.316 235.94,-54.695 2.7,0.195 5.55,0.41 8.42,0.644 v -0.019 c 0.1,0.019 0.22,0.019 0.33,0.058 0.16,0 0.24,0 0.38,0.02 v 0 c 2.81,0.254 5.68,0.547 8.36,0.801 93.18,9.414 178.16,48.359 223.39,94.187 30.63,30.957 86.72,166.543 -57.42,90.703" /><path
         id="path22"
         style="fill:#ffffff;fill-opacity:1;fill-rule:nonzero;stroke:none"
         d="m 1143.4,746.516 c -2.48,-7.825 -0.92,-17.414 -0.31,-19.563 2.67,-9.512 14.51,-14.109 25.72,-18.055 13.59,-4.796 26.62,-9.445 31.11,5.809 2.91,9.902 7.66,27.18 4.63,37.395 -5.21,2.468 -26.56,10.632 -52.85,10.964 0,0 -4.06,-3.242 -8.3,-16.55" /><path
         id="path24"
         style="fill:#ffffff;fill-opacity:1;fill-rule:nonzero;stroke:none"
         d="m 1223.07,704.551 c -0.53,-16.903 48.24,-19.141 55.04,-15.313 6.17,3.418 11.34,36.907 9.23,48.438 -21.46,5.429 -31.85,5.281 -58.59,6.25 0,0 -5.39,-28.008 -5.68,-39.375" /><path
         id="path26"
         style="fill:#ffffff;fill-opacity:1;fill-rule:nonzero;stroke:none"
         d="m 1314.16,686.484 c 8.17,-6.367 37.48,-4.668 52.89,-3.554 2.39,0.175 6,7.312 5.94,10.761 -0.33,13.145 -1.17,26.582 -2.48,39.504 -17.83,-0.039 -42.3,2.762 -60.17,1.844 0,0 -6.08,-40.859 3.82,-48.555" /><path
         id="path28"
         style="fill:#ffffff;fill-opacity:1;fill-rule:nonzero;stroke:none"
         d="m 1397.62,735.059 c 1.17,-10.86 -0.31,-41.942 8.85,-47.332 8.07,-4.836 44.06,4.695 50.62,9.636 -0.7,14.25 -2.38,29.297 -4.76,43.36 -12.27,3.476 -54.71,-5.664 -54.71,-5.664" /><path
         id="path30"
         style="fill:#ffffff;fill-opacity:1;fill-rule:nonzero;stroke:none"
         d="m 1520.02,765.234 c -8.63,-0.535 -32.54,-9.726 -46.56,-16.113 -1.56,-14.219 3.3,-33.621 7.58,-46.387 14.24,-1.328 44.08,9.934 51.62,17.442 -1.45,14.062 -4.36,33.84 -12.64,45.058" /><path
         id="path32"
         style="fill:#ffffff;fill-opacity:1;fill-rule:nonzero;stroke:none"
         d="m 1549.11,775.293 c -5.75,-5.137 4.8,-44.109 11.79,-43.223 21.82,6.309 32.15,13.125 38.54,28.907 3.94,9.765 0.78,24.843 -6.56,36.867 -19.07,-4.778 -34.61,-12.864 -43.77,-22.551" /><path
         id="path34"
         style="fill:#231f20;fill-opacity:1;fill-rule:nonzero;stroke:none"
         d="m 1323.36,1260.41 c 0,-41.55 -33.67,-75.29 -75.22,-75.29 -41.42,0 -75.23,33.74 -75.23,75.29 0,41.62 33.81,75.32 75.23,75.32 41.55,0 75.22,-33.7 75.22,-75.32" /><path
         id="path36"
         style="fill:#ffffff;fill-opacity:1;fill-rule:nonzero;stroke:none"
         d="m 1277.56,1276.75 c 0,-12.22 -9.86,-22.12 -22.05,-22.12 -12.19,0 -22.03,9.9 -22.03,22.12 0,12.2 9.84,22.1 22.03,22.1 12.19,0 22.05,-9.9 22.05,-22.1" /><path
         id="path38"
         style="fill:#231f20;fill-opacity:1;fill-rule:nonzero;stroke:none"
         d="m 1514.07,1285.72 c 0,-39.41 -31.98,-71.36 -71.43,-71.36 -39.37,0 -71.33,31.95 -71.33,71.36 0,39.41 31.96,71.36 71.33,71.36 39.45,0 71.43,-31.95 71.43,-71.36" /><path
         id="path40"
         style="fill:#ffffff;fill-opacity:1;fill-rule:nonzero;stroke:none"
         d="m 1465.55,1302.49 c 0,-12.22 -9.92,-22.13 -22.15,-22.13 -12.2,0 -22.11,9.91 -22.11,22.13 0,12.2 9.91,22.1 22.11,22.1 12.23,0 22.15,-9.9 22.15,-22.1" /><path
         id="path42"
         style="fill:#da1192;fill-opacity:1;fill-rule:nonzero;stroke:none"
         d="m 221.172,1444.39 47.187,-95.62 105.547,-15.37 -76.367,-74.44 18.027,-105.09 -94.394,49.61 -94.434,-49.61 18.047,105.09 -76.3866,74.44 105.5666,15.37 47.207,95.62" /><path
         id="path44"
         style="fill:#f57c14;fill-opacity:1;fill-rule:nonzero;stroke:none"
         d="m 428.047,1831.64 47.226,-95.49 105.547,-15.29 -76.406,-74.43 18.047,-105.12 -94.414,49.64 -94.375,-49.64 18.027,105.12 -76.386,74.43 105.546,15.29 47.188,95.49" /><path
         id="path46"
         style="fill:#d22027;fill-opacity:1;fill-rule:nonzero;stroke:none"
         d="m 813.496,2071.58 47.227,-95.61 105.547,-15.37 -76.387,-74.44 18.047,-104.98 -94.434,49.56 -94.375,-49.56 18.027,104.98 -76.367,74.44 105.528,15.37 47.187,95.61" /><path
         id="path48"
         style="fill:#fcd205;fill-opacity:1;fill-rule:nonzero;stroke:none"
         d="m 1280.74,2169.48 47.14,-95.64 105.46,-15.35 -76.34,-74.44 17.96,-105.11 -94.22,49.63 -94.28,-49.63 18.07,105.11 -76.42,74.44 105.54,15.35 47.09,95.64" /><path
         id="path50"
         style="fill:#5b349a;fill-opacity:1;fill-rule:nonzero;stroke:none"
         d="m 1743.64,2070.09 47.2,-95.61 105.51,-15.35 -76.37,-74.43 18.07,-105.08 -94.41,49.58 -94.42,-49.58 18.03,105.08 -76.35,74.43 105.53,15.35 47.21,95.61" /><path
         id="path52"
         style="fill:#42b23c;fill-opacity:1;fill-rule:nonzero;stroke:none"
         d="m 2135.9,1831.45 47.17,-95.64 105.55,-15.3 -76.37,-74.32 18.03,-104.96 -94.38,49.59 -94.43,-49.59 18.03,104.96 -76.35,74.32 105.55,15.3 47.2,95.64" /><path
         id="path54"
         style="fill:#34b6ed;fill-opacity:1;fill-rule:nonzero;stroke:none"
         d="m 2344.07,1443.36 47.18,-95.66 105.57,-15.36 -76.35,-74.42 18.01,-105.12 -94.41,49.62 -94.42,-49.62 18.01,105.12 -76.35,74.42 105.57,15.36 47.19,95.66" /><path
         id="path56"
         style="fill:#231f20;fill-opacity:1;fill-rule:nonzero;stroke:none"
         d="m 1431.27,442.453 c 0,-30.254 -24.51,-54.824 -54.82,-54.824 -30.25,0 -54.73,24.57 -54.73,54.824 0,30.313 24.48,54.863 54.73,54.863 30.31,0 54.82,-24.55 54.82,-54.863" /><path
         id="path58"
         style="fill:#231f20;fill-opacity:1;fill-rule:nonzero;stroke:none"
         d="m 1442.43,487.297 c 34.06,33.867 72.12,38.262 110.03,59.219 19.15,-45.547 7.17,-127.891 4.59,-178.125 -34.33,12.05 -81.58,21.582 -113.53,36.797 21.31,42.656 -1.09,82.109 -1.09,82.109" /><path
         id="path60"
         style="fill:#231f20;fill-opacity:1;fill-rule:nonzero;stroke:none"
         d="m 1308.46,487.277 c -34.03,33.887 -71.98,38.282 -109.83,59.239 -19.16,-45.567 -7.17,-127.891 -4.59,-178.125 34.3,12.05 81.41,21.582 113.33,36.797 -21.28,42.656 1.09,82.089 1.09,82.089" /></g></g></svg>