<svg aria-hidden="true" style="position: absolute; width: 0; height: 0; overflow: hidden;" version="1.1" xmlns="http://www.w3.org/2000/svg" xmlns:xlink="http://www.w3.org/1999/xlink">
<defs>
<symbol id="icon-home" viewBox="0 0 32 32">
<path d="M28 4v24h-8v-8h-8v8h-8v-24h4v4h4v-4h8v4h4v-4h4z"></path>
</symbol>
<symbol id="icon-perform" viewBox="0 0 32 32">
<path d="M10 14h4v11h-4v-11zM18 25h4v-11h-4v11zM2.083 6l-0.083 19h4v-15h20.083l-0.083 15h4v-19h-27.917z"></path>
</symbol>
<symbol id="icon-phone" viewBox="0 0 32 32">
<path d="M22 20c-2 2-2 4-4 4s-4-2-6-4-4-4-4-6 2-2 4-4-4-8-6-8-6 6-6 6c0 4 4.109 12.109 8 16s12 8 16 8c0 0 6-4 6-6s-6-8-8-6z"></path>
</symbol>
<symbol id="icon-location" viewBox="0 0 32 32">
<path d="M16 0c-5.523 0-10 4.477-10 10 0 10 10 22 10 22s10-12 10-22c0-5.523-4.477-10-10-10zM16 16c-3.314 0-6-2.686-6-6s2.686-6 6-6 6 2.686 6 6-2.686 6-6 6z"></path>
</symbol>
<symbol id="icon-quotes-left" viewBox="0 0 32 32">
<path d="M7.031 14c3.866 0 7 3.134 7 7s-3.134 7-7 7-7-3.134-7-7l-0.031-1c0-7.732 6.268-14 14-14v4c-2.671 0-5.182 1.040-7.071 2.929-0.364 0.364-0.695 0.751-0.995 1.157 0.357-0.056 0.724-0.086 1.097-0.086zM25.031 14c3.866 0 7 3.134 7 7s-3.134 7-7 7-7-3.134-7-7l-0.031-1c0-7.732 6.268-14 14-14v4c-2.671 0-5.182 1.040-7.071 2.929-0.364 0.364-0.695 0.751-0.995 1.157 0.358-0.056 0.724-0.086 1.097-0.086z"></path>
</symbol>
<symbol id="icon-quotes-right" viewBox="0 0 32 32">
<path d="M25 20c-3.866 0-7-3.134-7-7s3.134-7 7-7 7 3.134 7 7l0.031 1c0 7.732-6.268 14-14 14v-4c2.671 0 5.182-1.040 7.071-2.929 0.364-0.364 0.695-0.75 0.995-1.157-0.357 0.056-0.724 0.086-1.097 0.086zM7 20c-3.866 0-7-3.134-7-7s3.134-7 7-7 7 3.134 7 7l0.031 1c0 7.732-6.268 14-14 14v-4c2.671 0 5.182-1.040 7.071-2.929 0.364-0.364 0.695-0.75 0.995-1.157-0.357 0.056-0.724 0.086-1.097 0.086z"></path>
</symbol>
<symbol id="icon-mail4" viewBox="0 0 32 32">
<path d="M16 0c-8.837 0-16 7.163-16 16s7.163 16 16 16 16-7.163 16-16-7.163-16-16-16zM8 8h16c0.286 0 0.563 0.061 0.817 0.177l-8.817 10.286-8.817-10.287c0.254-0.116 0.531-0.177 0.817-0.177zM6 22v-12c0-0.042 0.002-0.084 0.004-0.125l5.864 6.842-5.8 5.8c-0.045-0.167-0.069-0.34-0.069-0.517zM24 24h-16c-0.177 0-0.35-0.024-0.517-0.069l5.691-5.691 2.826 3.297 2.826-3.297 5.691 5.691c-0.167 0.045-0.34 0.069-0.517 0.069zM26 22c0 0.177-0.024 0.35-0.069 0.517l-5.8-5.8 5.865-6.842c0.003 0.041 0.004 0.083 0.004 0.125v12z"></path>
</symbol>
<symbol id="icon-facebook" viewBox="0 0 32 32">
<path d="M19 6h5v-6h-5c-3.86 0-7 3.14-7 7v3h-4v6h4v16h6v-16h5l1-6h-6v-3c0-0.542 0.458-1 1-1z"></path>
</symbol>
<symbol id="icon-instagram" viewBox="0 0 32 32">
<path d="M16 2.881c4.275 0 4.781 0.019 6.462 0.094 1.563 0.069 2.406 0.331 2.969 0.55 0.744 0.288 1.281 0.638 1.837 1.194 0.563 0.563 0.906 1.094 1.2 1.838 0.219 0.563 0.481 1.412 0.55 2.969 0.075 1.688 0.094 2.194 0.094 6.463s-0.019 4.781-0.094 6.463c-0.069 1.563-0.331 2.406-0.55 2.969-0.288 0.744-0.637 1.281-1.194 1.837-0.563 0.563-1.094 0.906-1.837 1.2-0.563 0.219-1.413 0.481-2.969 0.55-1.688 0.075-2.194 0.094-6.463 0.094s-4.781-0.019-6.463-0.094c-1.563-0.069-2.406-0.331-2.969-0.55-0.744-0.288-1.281-0.637-1.838-1.194-0.563-0.563-0.906-1.094-1.2-1.837-0.219-0.563-0.481-1.413-0.55-2.969-0.075-1.688-0.094-2.194-0.094-6.463s0.019-4.781 0.094-6.463c0.069-1.563 0.331-2.406 0.55-2.969 0.288-0.744 0.638-1.281 1.194-1.838 0.563-0.563 1.094-0.906 1.838-1.2 0.563-0.219 1.412-0.481 2.969-0.55 1.681-0.075 2.188-0.094 6.463-0.094zM16 0c-4.344 0-4.887 0.019-6.594 0.094-1.7 0.075-2.869 0.35-3.881 0.744-1.056 0.412-1.95 0.956-2.837 1.85-0.894 0.888-1.438 1.781-1.85 2.831-0.394 1.019-0.669 2.181-0.744 3.881-0.075 1.713-0.094 2.256-0.094 6.6s0.019 4.887 0.094 6.594c0.075 1.7 0.35 2.869 0.744 3.881 0.413 1.056 0.956 1.95 1.85 2.837 0.887 0.887 1.781 1.438 2.831 1.844 1.019 0.394 2.181 0.669 3.881 0.744 1.706 0.075 2.25 0.094 6.594 0.094s4.888-0.019 6.594-0.094c1.7-0.075 2.869-0.35 3.881-0.744 1.050-0.406 1.944-0.956 2.831-1.844s1.438-1.781 1.844-2.831c0.394-1.019 0.669-2.181 0.744-3.881 0.075-1.706 0.094-2.25 0.094-6.594s-0.019-4.887-0.094-6.594c-0.075-1.7-0.35-2.869-0.744-3.881-0.394-1.063-0.938-1.956-1.831-2.844-0.887-0.887-1.781-1.438-2.831-1.844-1.019-0.394-2.181-0.669-3.881-0.744-1.712-0.081-2.256-0.1-6.6-0.1v0z"></path>
<path d="M16 7.781c-4.537 0-8.219 3.681-8.219 8.219s3.681 8.219 8.219 8.219 8.219-3.681 8.219-8.219c0-4.537-3.681-8.219-8.219-8.219zM16 21.331c-2.944 0-5.331-2.387-5.331-5.331s2.387-5.331 5.331-5.331c2.944 0 5.331 2.387 5.331 5.331s-2.387 5.331-5.331 5.331z"></path>
<path d="M26.462 7.456c0 1.060-0.859 1.919-1.919 1.919s-1.919-0.859-1.919-1.919c0-1.060 0.859-1.919 1.919-1.919s1.919 0.859 1.919 1.919z"></path>
</symbol>
<symbol id="icon-whatsapp" viewBox="0 0 32 32">
<path d="M27.281 4.65c-2.994-3-6.975-4.65-11.219-4.65-8.738 0-15.85 7.112-15.85 15.856 0 2.794 0.731 5.525 2.119 7.925l-2.25 8.219 8.406-2.206c2.319 1.262 4.925 1.931 7.575 1.931h0.006c0 0 0 0 0 0 8.738 0 15.856-7.113 15.856-15.856 0-4.238-1.65-8.219-4.644-11.219zM16.069 29.050v0c-2.369 0-4.688-0.637-6.713-1.837l-0.481-0.288-4.987 1.306 1.331-4.863-0.313-0.5c-1.325-2.094-2.019-4.519-2.019-7.012 0-7.269 5.912-13.181 13.188-13.181 3.519 0 6.831 1.375 9.319 3.862 2.488 2.494 3.856 5.8 3.856 9.325-0.006 7.275-5.919 13.188-13.181 13.188zM23.294 19.175c-0.394-0.2-2.344-1.156-2.706-1.288s-0.625-0.2-0.894 0.2c-0.262 0.394-1.025 1.288-1.256 1.556-0.231 0.262-0.462 0.3-0.856 0.1s-1.675-0.619-3.188-1.969c-1.175-1.050-1.975-2.35-2.206-2.744s-0.025-0.613 0.175-0.806c0.181-0.175 0.394-0.463 0.594-0.694s0.262-0.394 0.394-0.662c0.131-0.262 0.069-0.494-0.031-0.694s-0.894-2.15-1.219-2.944c-0.319-0.775-0.65-0.669-0.894-0.681-0.231-0.012-0.494-0.012-0.756-0.012s-0.694 0.1-1.056 0.494c-0.363 0.394-1.387 1.356-1.387 3.306s1.419 3.831 1.619 4.1c0.2 0.262 2.794 4.269 6.769 5.981 0.944 0.406 1.681 0.65 2.256 0.837 0.95 0.3 1.813 0.256 2.494 0.156 0.762-0.113 2.344-0.956 2.675-1.881s0.331-1.719 0.231-1.881c-0.094-0.175-0.356-0.275-0.756-0.475z"></path>
</symbol>
<symbol id="icon-twitter" viewBox="0 0 32 32">
<path d="M32 7.075c-1.175 0.525-2.444 0.875-3.769 1.031 1.356-0.813 2.394-2.1 2.887-3.631-1.269 0.75-2.675 1.3-4.169 1.594-1.2-1.275-2.906-2.069-4.794-2.069-3.625 0-6.563 2.938-6.563 6.563 0 0.512 0.056 1.012 0.169 1.494-5.456-0.275-10.294-2.888-13.531-6.862-0.563 0.969-0.887 2.1-0.887 3.3 0 2.275 1.156 4.287 2.919 5.463-1.075-0.031-2.087-0.331-2.975-0.819 0 0.025 0 0.056 0 0.081 0 3.181 2.263 5.838 5.269 6.437-0.55 0.15-1.131 0.231-1.731 0.231-0.425 0-0.831-0.044-1.237-0.119 0.838 2.606 3.263 4.506 6.131 4.563-2.25 1.762-5.075 2.813-8.156 2.813-0.531 0-1.050-0.031-1.569-0.094 2.913 1.869 6.362 2.95 10.069 2.95 12.075 0 18.681-10.006 18.681-18.681 0-0.287-0.006-0.569-0.019-0.85 1.281-0.919 2.394-2.075 3.275-3.394z"></path>
</symbol>
<symbol id="icon-youtube" viewBox="0 0 32 32">
<path d="M31.681 9.6c0 0-0.313-2.206-1.275-3.175-1.219-1.275-2.581-1.281-3.206-1.356-4.475-0.325-11.194-0.325-11.194-0.325h-0.012c0 0-6.719 0-11.194 0.325-0.625 0.075-1.987 0.081-3.206 1.356-0.963 0.969-1.269 3.175-1.269 3.175s-0.319 2.588-0.319 5.181v2.425c0 2.587 0.319 5.181 0.319 5.181s0.313 2.206 1.269 3.175c1.219 1.275 2.819 1.231 3.531 1.369 2.563 0.244 10.881 0.319 10.881 0.319s6.725-0.012 11.2-0.331c0.625-0.075 1.988-0.081 3.206-1.356 0.962-0.969 1.275-3.175 1.275-3.175s0.319-2.587 0.319-5.181v-2.425c-0.006-2.588-0.325-5.181-0.325-5.181zM12.694 20.15v-8.994l8.644 4.513-8.644 4.481z"></path>
</symbol>
<symbol id="icon-position" viewBox="0 0 32 32">
<path d="M16.5 24.447v-0.996c3.352 0.099 5.993 1.174 5.993 2.487 0 1.379-2.906 2.56-6.492 2.56s-6.492-1.181-6.492-2.56c0-1.313 2.641-2.389 5.992-2.487v0.996c-2.799 0.069-4.993 0.71-4.993 1.491 0 0.827 2.459 1.623 5.493 1.623 3.033 0 5.492-0.796 5.492-1.623-0.001-0.781-2.194-1.421-4.993-1.491zM10.516 8.995c0-3.033 2.521-5.493 5.556-5.493 3.034 0 5.493 2.46 5.493 5.493 0 2.607-1.818 4.786-4.256 5.348l-1.309 13.219-1.313-13.256c-2.362-0.615-4.171-2.756-4.171-5.311zM16 7.524c0-0.828-0.671-1.498-1.498-1.498s-1.499 0.67-1.499 1.498c0 0.827 0.671 1.498 1.499 1.498s1.498-0.67 1.498-1.498z"></path>
</symbol>
<symbol id="icon-ticket" viewBox="0 0 39 32">
<path d="M39 19.438v5.562c0 1.104-0.896 2-2 2h-35c-1.104 0-2-0.896-2-2v-5.5c1.657 0 3-1.344 3-3 0-1.657-1.343-3-3-3v-5.5c0-1.104 0.896-2 2-2h35c1.104 0 2 0.896 2 2v5.438c-1.657 0-3 1.343-3 3 0 1.656 1.343 3 3 3zM34 11c0-1.104-0.896-2-2-2h-25c-1.104 0-2 0.896-2 2v11c0 1.104 0.896 2 2 2h25c1.104 0 2-0.896 2-2v-11zM32 23h-25c-0.553 0-1-0.448-1-1v-11c0-0.553 0.447-1 1-1h25c0.552 0 1 0.447 1 1v11c0 0.552-0.448 1-1 1zM12.47 15.538l-0.907-2.58-0.907 2.58-2.614 0.11 2.054 1.704-0.709 2.648 2.176-1.526 2.175 1.526-0.708-2.647 2.053-1.704-2.613-0.111zM20.47 15.538l-0.907-2.58-0.907 2.58-2.614 0.11 2.054 1.704-0.709 2.648 2.176-1.526 2.175 1.526-0.708-2.647 2.053-1.704-2.613-0.111zM28.47 15.538l-0.907-2.58-0.907 2.58-2.613 0.11 2.053 1.704-0.709 2.648 2.176-1.526 2.175 1.526-0.708-2.647 2.053-1.704-2.613-0.111z"></path>
</symbol>
<symbol id="icon-chevron-left" viewBox="0 0 21 28">
<path d="M18.297 4.703l-8.297 8.297 8.297 8.297c0.391 0.391 0.391 1.016 0 1.406l-2.594 2.594c-0.391 0.391-1.016 0.391-1.406 0l-11.594-11.594c-0.391-0.391-0.391-1.016 0-1.406l11.594-11.594c0.391-0.391 1.016-0.391 1.406 0l2.594 2.594c0.391 0.391 0.391 1.016 0 1.406z"></path>
</symbol>
<symbol id="icon-chevron-right" viewBox="0 0 19 28">
<path d="M17.297 13.703l-11.594 11.594c-0.391 0.391-1.016 0.391-1.406 0l-2.594-2.594c-0.391-0.391-0.391-1.016 0-1.406l8.297-8.297-8.297-8.297c-0.391-0.391-0.391-1.016 0-1.406l2.594-2.594c0.391-0.391 1.016-0.391 1.406 0l11.594 11.594c0.391 0.391 0.391 1.016 0 1.406z"></path>
</symbol>
<symbol id="icon-bullseye" viewBox="0 0 24 28">
<path d="M16 14c0 2.203-1.797 4-4 4s-4-1.797-4-4 1.797-4 4-4 4 1.797 4 4zM18 14c0-3.313-2.688-6-6-6s-6 2.688-6 6 2.688 6 6 6 6-2.688 6-6zM20 14c0 4.422-3.578 8-8 8s-8-3.578-8-8 3.578-8 8-8 8 3.578 8 8zM22 14c0-5.516-4.484-10-10-10s-10 4.484-10 10 4.484 10 10 10 10-4.484 10-10zM24 14c0 6.625-5.375 12-12 12s-12-5.375-12-12 5.375-12 12-12 12 5.375 12 12z"></path>
</symbol>
<symbol id="icon-child" viewBox="0 0 20 28">
<path d="M18.562 8.563l-4.562 4.562v12.875c0 0.969-0.781 1.75-1.75 1.75s-1.75-0.781-1.75-1.75v-6h-1v6c0 0.969-0.781 1.75-1.75 1.75s-1.75-0.781-1.75-1.75v-12.875l-4.562-4.562c-0.578-0.594-0.578-1.531 0-2.125 0.594-0.578 1.531-0.578 2.125 0l3.563 3.563h5.75l3.563-3.563c0.594-0.578 1.531-0.578 2.125 0 0.578 0.594 0.578 1.531 0 2.125zM13.5 6c0 1.937-1.563 3.5-3.5 3.5s-3.5-1.563-3.5-3.5 1.563-3.5 3.5-3.5 3.5 1.563 3.5 3.5z"></path>
</symbol>
<symbol id="icon-futbol-o" viewBox="0 0 28 28">
<path d="M9.516 12.75l4.484-3.25 4.484 3.25-1.703 5.25h-5.547zM14 0c7.734 0 14 6.266 14 14s-6.266 14-14 14-14-6.266-14-14 6.266-14 14-14zM23.672 21.094c1.469-2 2.328-4.438 2.328-7.094v-0.047l-1.594 1.391-3.75-3.5 0.984-5.047 2.094 0.187c-1.484-2.047-3.609-3.625-6.078-4.406l0.828 1.937-4.484 2.484-4.484-2.484 0.828-1.937c-2.469 0.781-4.594 2.359-6.078 4.406l2.109-0.187 0.969 5.047-3.75 3.5-1.594-1.391v0.047c0 2.656 0.859 5.094 2.328 7.094l0.469-2.063 5.094 0.625 2.172 4.656-1.813 1.078c1.172 0.391 2.438 0.609 3.75 0.609s2.578-0.219 3.75-0.609l-1.813-1.078 2.172-4.656 5.094-0.625z"></path>
</symbol>
<symbol id="icon-table_chart" viewBox="0 0 24 24">
<path d="M3 18.984v-9h5.016v11.016h-3q-0.797 0-1.406-0.609t-0.609-1.406zM20.016 3q0.797 0 1.383 0.609t0.586 1.406v3h-18.984v-3q0-0.797 0.609-1.406t1.406-0.609h15zM17.016 21v-11.016h4.969v9q0 0.797-0.586 1.406t-1.383 0.609h-3zM9.984 10.031h5.016v10.969h-5.016v-10.969z"></path>
</symbol>
<symbol id="icon-insert_chart_outlined" viewBox="0 0 24 24">
<path d="M19.5 3q0.797 0 1.406 0.609t0.609 1.406v13.969q0 0.797-0.609 1.406t-1.406 0.609h-15q-0.797 0-1.406-0.609t-0.609-1.406v-13.969q0-0.797 0.609-1.406t1.406-0.609h15zM19.5 19.078v-14.063h-15v14.063h15zM17.016 17.016h-2.016v-4.031h2.016v4.031zM12.984 17.016h-1.969v-10.031h1.969v10.031zM9 17.016h-2.016v-7.031h2.016v7.031z"></path>
</symbol>
<symbol id="icon-grid_off" viewBox="0 0 24 24">
<path d="M15.984 20.016h1.453l-1.453-1.453v1.453zM14.016 20.016v-3.469l-0.563-0.563h-3.469v4.031h4.031zM8.016 14.016v-3.469l-0.563-0.563h-3.469v4.031h4.031zM8.016 20.016v-4.031h-4.031v4.031h4.031zM3.984 6.563v1.453h1.453zM9.984 12.563v1.453h1.453zM1.266 1.266l21.469 21.469-1.266 1.266-2.016-2.016h-15.469q-0.797 0-1.383-0.586t-0.586-1.383v-15.469l-2.016-2.016zM15.984 3.984v4.031h4.031v-4.031h-4.031zM8.016 3.984h-1.453l-2.016-1.969h15.469q0.797 0 1.383 0.586t0.586 1.383v15.469l-1.969-2.016v-1.453h-1.453l-2.016-1.969h3.469v-4.031h-4.031v3.469l-1.969-2.016v-1.453h-1.453l-2.016-1.969h3.469v-4.031h-4.031v3.469l-1.969-2.016v-1.453z"></path>
</symbol>
<symbol id="icon-directions_walk" viewBox="0 0 24 24">
<path d="M9.797 8.906l-2.813 14.109h2.109l1.828-8.016 2.063 2.016v6h2.016v-7.5l-2.109-2.016 0.609-3q2.156 2.484 5.484 2.484v-1.969q-2.906 0-4.266-2.438l-1.031-1.594q-0.703-0.984-1.688-0.984-0.141 0-0.398 0.047t-0.398 0.047l-5.203 2.203v4.688h2.016v-3.375l1.781-0.703zM13.5 5.484q-0.797 0-1.406-0.586t-0.609-1.383 0.609-1.406 1.406-0.609 1.406 0.609 0.609 1.406-0.609 1.383-1.406 0.586z"></path>
</symbol>
<symbol id="icon-emoji_events" viewBox="0 0 24 24">
<path d="M18.984 8.016v-1.031h-1.969v3.844q1.969-0.703 1.969-2.813zM6.984 10.828v-3.844h-1.969v1.031q0 2.109 1.969 2.813zM18.984 5.016q0.797 0 1.406 0.586t0.609 1.383v1.031q0 1.875-1.266 3.281t-3.141 1.641q-0.422 1.031-1.477 1.875t-2.133 1.078v3.094h4.031v2.016h-10.031v-2.016h4.031v-3.094q-1.078-0.234-2.133-1.078t-1.477-1.875q-1.875-0.234-3.141-1.641t-1.266-3.281v-1.031q0-0.797 0.609-1.383t1.406-0.586h1.969v-2.016h10.031v2.016h1.969z"></path>
</symbol>
<symbol id="icon-sports_football" viewBox="0 0 24 24">
<path d="M21 8.391l-5.391-5.391q1.641-0.047 3.023 0.188t1.664 0.516 0.516 1.641 0.188 3.047zM9.891 15.516l5.625-5.625-1.406-1.406-5.625 5.625zM13.078 3.281l7.641 7.641q-0.75 4.172-3.188 6.609t-6.609 3.188l-7.641-7.641q0.75-4.172 3.188-6.609t6.609-3.188zM3 15.609l5.391 5.391q-1.641 0.047-3.023-0.188t-1.664-0.516-0.516-1.641-0.188-3.047z"></path>
</symbol>
<symbol id="icon-cleaning_services" viewBox="0 0 24 24">
<path d="M15.984 11.016h-0.984v-8.016q0-0.844-0.586-1.43t-1.43-0.586h-1.969q-0.844 0-1.43 0.586t-0.586 1.43v8.016h-0.984q-1.406 0-2.531 0.656t-1.805 1.805-0.68 2.508v7.031h18v-7.031q0-1.359-0.68-2.508t-1.805-1.805-2.531-0.656zM18.984 21h-1.969v-3q0-0.422-0.305-0.703t-0.727-0.281q-0.375 0-0.68 0.281t-0.305 0.703v3h-2.016v-3q0-0.422-0.281-0.703t-0.703-0.281-0.703 0.281-0.281 0.703v3h-2.016v-3q0-0.422-0.305-0.703t-0.68-0.281q-0.422 0-0.727 0.281t-0.305 0.703v3h-1.969v-5.016q0-0.797 0.398-1.477t1.078-1.102 1.523-0.422h7.969q0.844 0 1.523 0.422t1.078 1.102 0.398 1.477v5.016z"></path>
</symbol>
<symbol id="icon-escalator_warning" viewBox="0 0 24 24">
<path d="M6.516 2.016q0.797 0 1.383 0.586t0.586 1.383q0 0.844-0.586 1.43t-1.383 0.586q-0.844 0-1.43-0.586t-0.586-1.43q0-0.797 0.586-1.383t1.43-0.586zM15.516 9.516q0 0.609 0.422 1.055t1.078 0.445q0.609 0 1.055-0.445t0.445-1.055q0-0.656-0.445-1.078t-1.055-0.422q-0.656 0-1.078 0.422t-0.422 1.078zM18.516 12h-2.859q-0.422 0-0.82 0.234t-0.633 0.609l-0.891 1.359-3.609-6.188q-0.281-0.469-0.727-0.75t-0.961-0.281h-3q-0.844 0-1.43 0.586t-0.586 1.43v6h1.5v6.984h5.016v-10.359l2.531 4.359h2.203l0.75-1.078v7.078h3.984v-4.969h1.031v-3.516q0-0.609-0.445-1.055t-1.055-0.445z"></path>
</symbol>
<symbol id="icon-chevron-right1" viewBox="0 0 20 20">
<path d="M9.163 4.516c0.418 0.408 4.502 4.695 4.502 4.695 0.223 0.219 0.335 0.504 0.335 0.789s-0.112 0.57-0.335 0.787c0 0-4.084 4.289-4.502 4.695-0.418 0.408-1.17 0.436-1.615 0-0.446-0.434-0.481-1.041 0-1.574l3.747-3.908-3.747-3.908c-0.481-0.533-0.446-1.141 0-1.576s1.197-0.409 1.615 0z"></path>
</symbol>
<symbol id="icon-chevron-small-down" viewBox="0 0 20 20">
<path d="M13.418 7.859c0.271-0.268 0.709-0.268 0.978 0s0.272 0.701 0 0.969l-3.908 3.83c-0.27 0.268-0.707 0.268-0.979 0l-3.908-3.83c-0.27-0.267-0.27-0.701 0-0.969s0.709-0.268 0.978 0l3.421 3.141 3.418-3.141z"></path>
</symbol>
</defs>
</svg>
