<?xml version="1.0" encoding="UTF-8"?>
<svg viewBox="0 0 309.35049 206.50049" xmlns="http://www.w3.org/2000/svg">
 <g transform="translate(-124.21 -435.9)">
  <path d="m360.78125,446.9375c-.26065.3878-.30903.79755-.15625,1.3125 .18206.61364.65259,1.30011 1.09375,1.78125a.66758,.66758 0 0,1 .0625.0625c3.45131,5.10485 6.89673,10.22587 10.125,15.5a.66758,.66758 0 0,1 0,.6875l-16.21875,25.625a.66758,.66758 0 0,1 -1.21875-.34375c-.31529-14.06191-.24829-28.10808-.3125-42.15625a.66758,.66758 0 0,1 .125-.40625c.0626-.0804.0466.002.0312-.0312s-.12204-.15791-.25-.21875-.26224-.0366-.28125-.0312c-.00097.0104.00097.0209 0,.0312-1.10755,11.88095-.2078,23.85059-.46875,35.875l.0937,6.90625a.66758,.66758 0 0,1 -1.21875.375l-16.5625-25.4375a.66758,.66758 0 0,1 -.0312-.65625c1.55665-3.18071 3.54156-6.04998 5.40625-8.9375-2.01764,1.85758-3.85197,3.90022-4.96875,6.375a.66758,.66758 0 0,1 -.125.21875c-.32082.30406-.73606.40023-1.0625.4375s-.61855.0273-.84375.0312-.36736.0119-.40625.0312c-.0322.016-.0387.0391-.0625.125-.005.0179.007.002 0,.0312 .28455,1.58627-.0665,3.0622-.71875,4.375-.69632,1.40144-1.65316,2.66758-2.4375,3.8125-4.30635,6.41974-8.56209,12.85975-12.71875,19.375a.66758,.66758 0 0,1 -1.03125.125c-.0576-.0592-.0764-.0654-.125-.0625s-.13289.0541-.21875.125-.16557.17754-.1875.25-.00021.0997.0312.15625a.66758,.66758 0 0,1 0,.59375c-1.39311,2.9929-2.70503,6.0232-4.0625,9.03125 .78271-1.19966 1.54252-2.40391 2.34375-3.59375a.66758,.66758 0 0,1 1.21875.375l.15625,51.5625a.66758,.66758 0 0,1 -1.21875.375c-4.8105-7.05709-9.41588-14.22499-14.0625-21.375-.0863.46362-.0775.95419.0625,1.46875 .24672.9068.80486,1.83497 1.40625,2.5625a.66758,.66758 0 0,1 .0625.0625c4.41176,6.67363 8.86413,13.31673 13.1875,20.0625a.66758,.66758 0 0,1 -.53125,1.03125c-8.81309.36395-17.60326.21767-26.375.4375-.0586.0275-.0769.0601-.0937.125-.0216.0832-.0366.2481.0312.40625s.19821.29626.28125.34375 .102.055.21875,0a.66758,.66758 0 0,1 .25-.0625c8.13768-.20741 16.28796-.15102 24.40625-.21875a.66758,.66758 0 0,1 .5625,1.03125l-16.5,24.75a.66758,.66758 0 0,1 -1.09375.0312c-4.23506-5.68165-7.85254-11.75917-11.78125-17.5625a.66758,.66758 0 0,1 -.09365-.5311c-.0311-.0204-.11797-.0541-.21875-.0625s-.16232.0215-.1875.0312a.66758,.66758 0 0,1 0,.1875c-.2383,1.20639.13864,2.254.78125,3.34375 .63844,1.08268 1.53393,2.13277 2.21875,3.3125 .004.008-.004.0235 0,.0312l8.5625,13a.66758,.66758 0 0,1 0,.75l-15.9375,23.15625a.66758,.66758 0 0,1 -1.21875-.3749c.17578-11.24312.01-22.51456.125-33.78125-.0144.0256-.0506.0379-.0625.0625-.0752.15572-.0384.2915-.0625.1875a.66758,.66758 0 0,1 -.0312.40625c-1.8846,4.41897-1.07497,9.47486-1.21875,14.46875 .00012.0104-.00012.0208 0,.0312 .069,6.20952-.0547,12.40252-.125,18.59375a.66758,.66758 0 0,1 -1.15625.4375c-4.32765-4.95537-7.4742-10.68173-11.34375-15.78125a.66758,.66758 0 0,1 -.125-.5c.022-.13626.0108-.14946-.0625-.21875s-.24206-.17214-.40625-.1875-.30098.0616-.34375.0937-.0817-.00091-.0625.1875a.66758,.66758 0 0,1 0,.125c-.0695.85556.31501,1.54845.875,2.34375 .53575.76087 1.23873,1.57034 1.6875,2.5625 .0203.0449.0433.0792.0625.125l9.96875,15.0625a.66758,.66758 0 0,1 -.5625,1.03125l-33.78125.59375a.66758,.66758 0 0,1 -.5625-1c2.75547-4.34416 5.61414-8.62176 8.5-12.875-1.95912.98289-3.41164,3.01296-4.40625,5.09375a.66758,.66758 0 0,1 -.0625.0937l-3.28125,4.5625a.66758,.66758 0 0,1 -1.18755-.2811c-.37269-2.60424-.19014-5.15127-.5-7.5625-.41342-.0714-.9324.36001-.75.75a.66758,.66758 0 0,1 .0625.34375c-.15475,2.0549.35218,4.25143 0,6.59375a.66758,.66758 0 0,1 -1.09375.40625c-2.68929-2.44879-3.95261-5.82582-6.4375-7.8125-.0584.0657-.13839.19567-.15625.34375-.0357.29616.0796.55189.25.625a.66758,.66758 0 0,1 .28125.21875c2.23528,3.00859 4.23711,6.16216 6.28125,9.25a.66758,.66758 0 0,1 -.5625,1.03125c-11.28215.13453-22.56727.15867-33.84375.15625a.66758,.66758 0 0,1 -.15625,0c-.44002-.0965-.81555-.37827-1.03125-.71875s-.26656-.70676-.25-1.0625c.03-.64332.31816-1.24505.78125-1.6875h-.0312c3.28661-4.72503 6.6556-9.40447 9.75-14.21875-.006-.005.009-.0227 0-.0312-.0473-.0444-.19831-.0801-.34375-.0937s-.27764.0224-.34375.0625-.0856.0274-.0937.125a.66758,.66758 0 0,1 -.0937.3125c-2.99286,4.36191-5.9829,8.72706-8.96875,13.09375a.66758,.66758 0 0,1 -1.21875-.25c-1.25575-7.24071.19801-14.44436-.65625-21.40625a.66758,.66758 0 0,1 0-.0625c-.033-.51002.0174-1.03608-.0312-1.375-.0186-.12992-.0422-.1793-.0625-.21875-.0324.0369-.1056.0771-.125.125-.0437.10768-.0827.30669-.0625.5625 .0384.48709.23889,1.12471.1875,1.84375-.003.0362.004.0572 0,.0937 .1668,6.8287.0118,13.668-.0312,20.46875a.66758,.66758 0 0,1 -1.09375.53125c-3.4845-2.85641-5.03437-7.067-7.65625-10.15625a.66758,.66758 0 0,1 -.0625-.0625l-9.5-13.78125a.66758,.66758 0 0,1 -.0937-.53125c.95668-4.14625 4.06108-7.02052 5.71875-10.375a.66758,.66758 0 0,1 0-.0312c.64764-1.16822 1.49175-2.05598 1.8125-2.9375-.0575-.008-.12625-.0427-.1875-.0312-.10141.019-.16985.0743-.1875.0937s-.0118-.0114 0,.0625a.66758,.66758 0 0,1 -.0937.4375c-2.22451,3.70363-4.58942,7.30741-6.9375,10.90625a.66758,.66758 0 0,1 -1.09375.0312c-5.91331-7.40323-10.18036-15.82313-15.5625-23.40625-.25282-.19964-.49737-.41517-.59375-.6875-.13385-.3782-.14989-.78615-.0625-1.15625s.28943-.73707.625-1c.27242-.21345.67739-.25351 1.0625-.21875v-.0312c.0836-.007.16648.007.25,0 4.14706-.34144 8.26442-.045 12.3125-.0625-.007-.0459-.0145-.11093-.0625-.1875-.0649-.10351-.17366-.16948-.21875-.1875s.009-.0283-.0312,0a.66758,.66758 0 0,1 -.4375.0937c-4.08296-.39079-8.25431-.0988-12.46875-.25-.31291.15996-.67085.2357-.96875.15625-.4106-.1095-.70961-.35394-.9375-.65625s-.3852-.6672-.375-1.09375c.008-.32324.20558-.64795.46875-.90625l.0312-.0312c1.77426-3.0021 3.66226-5.87391 5.3125-8.875-.007-.005.0141-.0191 0-.0312-.0469-.0404-.19981-.11742-.34375-.125s-.26414.0597-.3125.0937-.0658-.0165-.0625.0937a.66758,.66758 0 0,1 -.0625.34375c-1.06248,2.08267-2.34382,4.00182-3.59375,5.90625a.66758,.66758 0 0,1 -1.1566-.0938c-1.69082-3.63787-.56519-7.50819-.84375-10.875a.66758,.66758 0 0,1 0-.125c.0554-.67865-.16363-1.40703-.375-2.15625-.0727.038-.14486.10694-.21875.21875-.16889.25556-.19306.62532-.0937.78125a.66758,.66758 0 0,1 .0937.34375c.0687,4.17866.12065,8.35222.15625,12.53125a.66758,.66758 0 0,1 -1.1875.40625c-6.11247-7.94481-10.86456-16.75627-16.5-24.875h.0312c-.37789-.41725-.50431-.91689-.5-1.34375 .004-.38024.0536-.67641.0937-.9375-.089-.31546-.29854-.47237-.75-.6875-.43669-.2081-1.02413-.44123-1.5625-.84375v.0312c-.1772-.0957-.39569-.18961-.625-.3125 .2037.5304.48302,1.07405.65625,1.75 .21111.82375.18309,1.8408-.46875,2.6875l-.0625.0937c-4.67287,7.69958-9.58903,15.22383-14.34375,22.84375a.66758,.66758 0 0,1 -1.1875-.0937c-1.26896-3.26966-.19369-6.6286-.65625-9.5a.66758,.66758 0 0,1 0-.0625c-.28136-7.53959-.25955-15.06681-.21875-22.59375-.05-.0295-.0906-.0914-.15625-.0937-.11598-.004-.28084.0505-.4375.15625-.31331.2115-.47049.53271-.375.78125a.66758,.66758 0 0,1 .0312.25c.18268,20.64376.44455,41.29039.625,61.9375 .1466,19.84213-.0719,39.66736-.25,59.5h.6875c.0444-7.86061.13595-15.75091.34375-23.59375a.66758,.66758 0 0,1 1.125-.4375l.0312.0312a.66758,.66758 0 0,1 .0937.0937c5.22181,7.91674 10.36643,15.87349 15.5,23.84375a.66758,.66758 0 0,1 .0312.0625h2.59375c4.93268-8.64446 10.63677-16.7612 15.90625-25.125a.66758,.66758 0 0,1 .1875-.21875l.0937-.0625a.66758,.66758 0 0,1 .375-.0937h.0625a.66758,.66758 0 0,1 .65625.59375c.46463,6.37789.21469,12.78037.34375,19.09375 .006,1.95007-.0203,3.87526-.0312,5.8125h.5v-24.1875a.66758,.66758 0 0,1 .1875-.46875l.0312-.0312a.66758,.66758 0 0,1 .46875-.1875h.0312a.66758,.66758 0 0,1 .53125.25c5.86599,7.89414 10.69074,16.437 15.96875,24.625h2.53125c4.72321-8.45745 10.16804-16.4828 15.40665-24.5625a.66758,.66758 0 0,1 .40625-.28125l.125-.0312a.66758,.66758 0 0,1 .5625.125l.125.0937a.66758,.66758 0 0,1 .25.375c.97668,4.09489.22878,8.20823.59375,12.0625a.66758,.66758 0 0,1 0,.0625c.0318,4.05546.0444,8.10437.0625,12.15625h.65625l-.21875-24.1875a.66758,.66758 0 0,1 .28125-.5625l.0937-.0625a.66758,.66758 0 0,1 .375-.0937h.0625a.66758,.66758 0 0,1 .5313.2812c5.44411,7.75474 10.40458,15.79418 15.5625,23.6875l-.0312.0312c.2432.26128.34349.58703.46875.90625h2.6875l16.31245-24.43745a.66758,.66758 0 0,1 1.21875.375l-.0937,24.0625h1.03125l.125-23.375a.66758,.66758 0 0,1 1.1875-.375l2.78125,3.90625a.66758,.66758 0 0,1 .0312,0c4.34773,6.53251 8.71039,13.06478 12.71875,19.84375h2.53125l15.5625-23.59375a.66758,.66758 0 0,1 1.21875.375l.125,23.21875h1.5l.0312-22.875a.66758,.66758 0 0,1 1.21875-.375l15.125,23.25h3.375l15.3125-23.5a.66758,.66758 0 0,1 1.21875.375l.15625,23.125h1.625l.0625-22.78125a.66758,.66758 0 0,1 1.21875-.375l15.0625,23.15625h3.53125l15.09375-23.9375a.66758,.66758 0 0,1 1.21875.34375l.15625,12.0625c.0122,3.83761.0549,7.69036.0937,11.53125h1.15625l-.1875-23.53125a.66758,.66758 0 0,1 1.21875-.375l15.71875,23.90625h3.53125l15.40625-24.1875a.66758,.66758 0 0,1 1.21885.34375l.0625,12.6875 .0625,11.15625h.875l-.125-24a.66758,.66758 0 0,1 1.21875-.375l8.5,12.9375 7.40625,11.4375h.96875l-16.4375-25.125a.66758,.66758 0 0,1 .5625-1.03125c4.12315.001 8.24994-.0154 12.375-.0312s8.24505-.0312 12.375,0l8.28125.0937a.66758,.66758 0 0,1 .5625,1.03125l-16.28125,25.0625h1l15.59375-24.0625a.66758,.66758 0 0,1 1.21875.375v23.6875h.84375l-.0312-156.09375c-.35768-.36201-.69841-.70785-.96875-1l-.0625,8.5a.66758,.66758 0 0,1 -1.21875.375l-16.125-24.9375c-.80678-.60833-1.57154-1.23909-2.34375-1.84375l.5625.90625a.66758,.66758 0 0,1 0,.71875l-16.46875,25.65625a.66758,.66758 0 0,1 -1.21875-.375c-.0564-12.63627-.0876-25.26573.0312-37.90625-.025-.12891-.0562-.13958-.15625-.1875s-.29409-.0956-.46875-.0625-.31467.14991-.375.21875-.0675.0712-.0312.21875a.66758,.66758 0 0,1 0,.15625l-.25,37.4375a.66758,.66758 0 0,1 -1.21875.34375l-16.15625-25.375a.66758,.66758 0 0,1 0-.6875l10.25-16.15625c-.268-.0656-.57512-.059-.875.0625-.49458.20042-.87423.63652-.9375,1.09375a.66758,.66758 0 0,1 -.0937.28125l-8.4375,12.96875a.66758,.66758 0 0,1 -1.09375.0312c-4.04268-5.46883-7.54822-11.28701-11.34375-16.84375-.10791-.0628-.18674-.10087-.25-.125zm-26.125,20.1875a.66758,.66758 0 0,1 .6875.28125l17.53125,27.4375a.66758,.66758 0 0,1 -.53125,1.03125c-11.23868.2732-22.47224-.22197-33.65625-.0937a.66758,.66758 0 0,1 -.4375-.1563c-.37633-.34659-.63206-.81027-.6875-1.25s.0464-.85163.1875-1.21875c.2785-.72473.76205-1.31241 1.0625-1.75 .005-.007-.005-.0239 0-.0312 5.09576-8.00571 10.2186-16.01832 15.40625-23.96875a.66758,.66758 0 0,1 .4375-.28125zm75.90625.1875a.66758,.66758 0 0,1 .6875.28125l17.40625,26.96875a.66758,.66758 0 0,1 -.5625,1.03125l-34.9375.28125a.66758,.66758 0 0,1 -.5625-1.03125l17.53125-27.25a.66758,.66758 0 0,1 .4375-.28125zm-38.0625.5c.20322-.006.20454.003.28125,0a.66758,.66758 0 0,1 .5625.28125c5.66965,8.75712 11.42201,17.48983 16.96875,26.34375a.66758,.66758 0 0,1 -.5,1c-7.60907.8393-15.20222.0192-22.65625.5-3.81866.10158-7.63138.094-11.4375.0937a.66758,.66758 0 0,1 -.5625-1c5.31847-9.14298 11.12301-17.96766 16.8125-26.84375a.66758,.66758 0 0,1 .15625-.15625l.125-.0937a.66758,.66758 0 0,1 .25-.125zm-53.21875,28.65625h.0625c10.60083.26605 21.19122.2543 31.8125.40625a.66758,.66758 0 0,1 .5625,1c-5.18237,8.46828-10.4681,16.88682-15.8125,25.25a.66758,.66758 0 0,1 -1.125,0c-5.59013-8.33053-10.99158-16.77336-16.5625-25.09375a.66758,.66758 0 0,1 -.0937-.25c-.0722-.33839.0238-.66956.25-.9375 .21102-.25.56136-.36884.90625-.34375v-.0312zm107.40625.1875a.66758,.66758 0 0,1 .5625,1.03125l-16.46875,25a.66758,.66758 0 0,1 -1.125,0c-5.37325-7.73306-10.20447-15.77139-15.3125-23.625a.66758,.66758 0 0,1 0-.71875c.59255-.97077 1.61525-1.26982 2.5-1.3125s1.74184.0802 2.3125,0a.66758,.66758 0 0,1 .0625,0c9.15529-.24456 18.32321-.28615 27.46875-.375zm-68.5625.25c.53518-.0206 1.0798-.025 1.625,0h.0312l28.90625.0312a.66758,.66758 0 0,1 .5625,1c-4.89196,7.85725-9.93238,15.63331-14.9375,23.40625-.0583.3385-.17713.67446-.40625.875-.31976.27988-.70926.38416-1.09375.40625s-.77451-.0637-1.125-.3125c-.26201-.18598-.41467-.49173-.5-.84375l-.0312-.0312c-4.94328-7.86027-10.06336-15.5973-15.15625-23.375a.66758,.66758 0 0,1 .46875-1.03125c.55443-.0722 1.11084-.10402 1.65625-.125zm-5.40625,1.71875a.66758,.66758 0 0,1 .78125.65625l.3125,23.125-.21875,27.15625a.66758,.66758 0 0,1 -1.1875.375c-5.66688-7.92028-10.63109-16.27451-16.09375-24.25a.66758,.66758 0 0,1 -.0625-.59375c1.54371-4.12134 4.30638-7.50099 6.3125-11.125a.66758,.66758 0 0,1 .0312-.0625l9.6875-15a.66758,.66758 0 0,1 .4375-.28125zm2.125.0937a.66758,.66758 0 0,1 .75.28125l2,3a.66758,.66758 0 0,1 0,.0312c4.70537,7.45615 9.55482,14.82875 14.25,22.3125a.66758,.66758 0 0,1 0,.6875c-5.23527,8.20501-10.43333,16.46265-15.75,24.625a.66758,.66758 0 0,1 -1.21875-.25c-.7479-4.16017-.26693-8.30689-.40625-12.3125a.66758,.66758 0 0,1 0-.0312c.1706-12.5493.0103-25.12456-.0937-37.6875a.66758,.66758 0 0,1 .46875-.65625zm73.1875.0312a.66758,.66758 0 0,1 .84375.65625l-.125,49.90625a.66758,.66758 0 0,1 -1.21875.375c-5.56299-8.17002-11.05548-16.37072-16.40625-24.6874a.66758,.66758 0 0,1 0-.71875c5.21964-8.62534 10.93032-16.91143 16.53125-25.25a.66758,.66758 0 0,1 .375-.28125zm-110.59375.0937a.66758,.66758 0 0,1 .375.28125c5.79621,8.20604 11.1954,16.6506 16.59375,25.09375a.66758,.66758 0 0,1 .0625.5625c-.82603,2.65867-2.70939,4.62439-3.78125,6.78125a.66758,.66758 0 0,1 -.0312.0625l-12.5625,18.78125a.66758,.66758 0 0,1 -1.21875-.375c-.1727-16.80237-.32891-33.60358-.46875-50.40625a.66758,.66758 0 0,1 .15625-.4375c.0222-.0258.0604-.0944.1875-.1875s.40016-.23225.6875-.15625zm72.6875.0937a.66758,.66758 0 0,1 .84375.65625l.03125,6.15645c-.23234,13.58017-.0798,27.17588-.3125,40.78125 .16148.6293.0105,1.24392-.34375,1.75-.20084.2869-.48838.56508-.90625.65625s-.87792-.0664-1.21875-.375a.66758,.66758 0 0,1 -.125-.125c-1.38765-1.98731-2.34934-4.12811-3.625-6a.66758,.66758 0 0,1 0-.0312c-3.3433-5.49168-7.0894-10.77694-10.5625-16.25a.66758,.66758 0 0,1 -.0937-.28125c-.12144-1.46791.43975-2.72096 1.09375-3.8125s1.38288-2.08564 1.8125-3.0625a.66758,.66758 0 0,1 .0625-.0625c4.18693-6.66939 8.58693-13.19745 12.96875-19.71875a.66758,.66758 0 0,1 .375-.28125zm2.375.28125a.66758,.66758 0 0,1 .625.1875l.125.125a.66758,.66758 0 0,1 .0937.0937c5.30988,7.93119 10.34428,16.01654 15.53125,24a.66758,.66758 0 0,1 .0937.4375c-.0881,1.10473-.59738,1.98619-1.125,2.75s-1.06463,1.42891-1.34375,2.125a.66758,.66758 0 0,1 -.0625.125c-4.29711,6.711-8.68655,13.34935-13.0625,20a.66758,.66758 0 0,1 -1.09375.0312c-.69841-.9482-.79564-2.02945-.78125-3s.11127-1.88975-.0312-2.625a.66758,.66758 0 0,1 0-.15625c.34846-14.48021.38498-28.94086.5313-43.4372a.66758,.66758 0 0,1 .5-.65625zm17.375,26.75a.66758,.66758 0 0,1 .75.28125l4.375,6.5 13.34375,20.0625a.66758,.66758 0 0,1 -.5625,1.03125c-11.58771.10849-23.16311-.16899-34.71875,0a.66758,.66758 0 0,1 -.65625-.78125c.70857-3.6903 3.49795-6.21153 4.96875-9.0625a.66758,.66758 0 0,1 .0312-.0625l12.0938-17.6873a.66758,.66758 0 0,1 .375-.28125zm-265.5.34375c.37793-.0428.27615-.10512.59375.0625 .56776.30605.86169.79025 1.09375,1.1875s.4297.73928.625.90625a.66758,.66758 0 0,1 .125.125c4.17908,6.04089 8.01406,12.28056 12.125,18.3125l4.1875,6.53125a.66758,.66758 0 0,1 -.53125,1.03125c-10.94921.74955-21.86758.15067-32.75.125v-.0625c-.36726.0912-.75503.17891-1.0625.0312-.38881-.18672-.67512-.5225-.84375-.875-.30353-.6345-.20458-1.46998.34375-2.0625l-.0312-.0312c4.95986-8.39293 10.19644-16.61249 15.4375-24.8125a.66758,.66758 0 0,1 .15625-.15625c-.002.002.13548-.21893.53125-.3125zm190.71875.15625a.66758,.66758 0 0,1 .65625.25l1.125,1.5a.66758,.66758 0 0,1 0,.0312c5.49181,7.74309 10.44252,15.81524 15.65625,23.6875a.66758,.66758 0 0,1 .0937.4375c-.0494.48933-.26293.94478-.59375,1.21875s-.73168.38212-1.09375.4375c-.70001.10707-1.37548-.008-1.8125-.0312h-.0625c-9.98387.26705-19.98863.43564-29.96875.625a.66758,.66758 0 0,1 -.34375-.0937c-.398-.23819-.68341-.60068-.78125-1s-.0471-.76676.0625-1.09375c.2193-.65398.63247-1.2083.875-1.5625l15.75-24.125a.66758,.66758 0 0,1 .4375-.28125zm37.125.0625c.31039-.0186.25529.00033.40625.0312a.66758,.66758 0 0,1 .375.21875c2.90538,3.38418 4.82606,7.35528 7.3125,10.8125a.66758,.66758 0 0,1 .0312,0l9.0625,13.90625a.66758,.66758 0 0,1 .0625.5625c-.13966.46554-.42219.85127-.78125,1.0625s-.74583.28425-1.09375.3125c-.69583.0565-1.35601-.009-1.65625.0625a.66758,.66758 0 0,1 -.125,0c-9.73889.5891-19.44822.31572-29.125.6875a.66758,.66758 0 0,1 -.3125-.0625c-.84279-.40539-1.15832-1.33149-1.0625-2.09375 .0848-.67443.41683-1.27971.9375-1.71875l15.53125-23.5a.66758,.66758 0 0,1 .4375-.28125zm22.46875,27.875h.0625c10.51456.2324 21.04083.34714 31.5625.46875a.66758,.66758 0 0,1 .5625,1c-4.65018,7.82666-9.66419,15.41255-14.59375,23.03125l-.0625-.0312c-.0716.32119-.10109.66696-.3125.875-.31044.30549-.69223.49306-1.09375.5625s-.85496.0446-1.25-.15625c-.3191-.16221-.54198-.49911-.6875-.875h-.0312c-4.96058-7.42502-9.88221-14.87837-14.90625-22.25-.43138-.33763-.64658-.84739-.625-1.34375 .0135-.31046.1184-.63317.375-.90625 .2408-.25628.62166-.3636 1-.34375v-.0312zm-6.5625.0625a.66758,.66758 0 0,1 .625,1l-1.21875,2.125a.66758,.66758 0 0,1 -.0312,0c-4.57404,7.63256-9.6446,14.91941-14.1875,22.5a.66758,.66758 0 0,1 -.9375.21875c-2.79299-1.92912-3.52171-5.27214-5.28125-7.375a.66758,.66758 0 0,1 -.0625-.0625c-3.68825-5.56095-7.33246-11.12495-10.96875-16.71875a.66758,.66758 0 0,1 .46875-1.03125c5.27534-.76871 10.52205-.0973 15.625-.375a.66758,.66758 0 0,1 .0312,0c5.32685-.0654 10.62914-.0953 15.9375-.28125zm-37.96875.40625c.0625-.009.25012-.005.1875,0a.66758,.66758 0 0,1 .65625.65645c.0324,1.53675-.65594,2.76818-1.40625,3.84375s-1.54969,2.02213-1.96875,3.03125a.66758,.66758 0 0,1 -.0625.125c-4.02374,6.00553-8.02009,12.03951-11.96875,18.09375a.66758,.66758 0 0,1 -1.09375.0312c-5.20524-6.70502-9.42897-14.04037-14.1875-20.9375a.66758,.66758 0 0,1 -.0937-.1875c-.0663-.23235-.3376-.5279-.6875-.9375s-.75921-1.0471-.65625-1.84375a.66758,.66758 0 0,1 .4375-.53125c4.36571-1.57058 8.87561-.39397 12.96875-.78125a.66758,.66758 0 0,1 .0625,0c5.89329-.12432 11.75237-.22682 17.625-.5a.66758,.66758 0 0,1 .1875-.0625zm-220.84375.21875h.25 .15625l31.28125.375a.66758,.66758 0 0,1 .59375.96875c-4.57338,8.661-10.33972,16.56573-15.1875,24.9375a.66758,.66758 0 0,1 -.84375.25c-1.36515-.65818-2.19406-1.78852-2.875-2.90625s-1.26799-2.22601-2.03125-3.03125a.66758,.66758 0 0,1 -.0625-.0937c-4.11908-6.17613-8.12791-12.41493-12.21875-18.5936a.66758,.66758 0 0,1 -.0625-.15625c-.12372-.35616-.11965-.72938.0312-1.0625s.51772-.64071.96875-.6875zm262.65625,1.40645a.66758,.66758 0 0,1 .5.0625l.0625.0312a.66758,.66758 0 0,1 .25.21875c5.5649,8.20959 11.02428,16.47994 16.53125,24.71875a.66758,.66758 0 0,1 .0937.375c-.002,1.47093-.6647,2.653-1.375,3.6875s-1.45883,1.96699-1.84375,2.9375a.66758,.66758 0 0,1 -.0625.125l-12.96875,19.9375a.66758,.66758 0 0,1 -1.21875-.375c-.10169-17.00936-.26792-34.02319-.5-51.03125a.66758,.66758 0 0,1 .34375-.59375l.0625-.0312a.66758,.66758 0 0,1 .125-.0625zm-37.3125.21875a.66758,.66758 0 0,1 .75.28125l1.1875,1.75 14.78125,23.125a.66758,.66758 0 0,1 0,.75c-5.41039,8.28801-10.7549,16.61674-16.28125,24.84375a.66758,.66758 0 0,1 -1.21875-.375l.3125-49.71875a.66758,.66758 0 0,1 .46875-.65625zm-2.25.125a.66758,.66758 0 0,1 .78125.5625l.0625.4375a.66758,.66758 0 0,1 0,.0937c-.32287,16.08464-.74772,32.1763-.71875,48.25a.66758,.66758 0 0,1 -1.125.46875c-3.84108-3.85029-6.00719-8.79798-9.03125-12.9375a.66758,.66758 0 0,1 -.0312-.0625l-6.78125-10.625a.66758,.66758 0 0,1 0-.71875l16.40625-25.1875a.66758,.66758 0 0,1 .4375-.28125zm75.5,0a.66758,.66758 0 0,1 .78125.65625l.3125,25.15625 .1875,25.59375a.66758,.66758 0 0,1 -1.21875.375l-16.875-25.75a.66758,.66758 0 0,1 0-.75l16.375-25a.66758,.66758 0 0,1 .4375-.28125zm-265.28125.1875a.66758,.66758 0 0,1 .46875.0625l.0625.0312a.66758,.66758 0 0,1 .34375.5625c.43276,12.19128.41863,24.38992.59375,36.5625 .0682,3.56322.11187,7.12493.15625,10.6875 .0139-.0831.006-.16746.0312-.25 .19346-9.52521-.0631-19.06477-.0312-28.625-.0187-5.71032.0461-11.42501.0625-17.125a.66758,.66758 0 0,1 .1875-.46875l.0625-.0625a.66758,.66758 0 0,1 .46875-.1875h.0937a.66758,.66758 0 0,1 .53125.25c5.67505,7.647 10.54527,15.81479 15.8125,23.65625a.66758,.66758 0 0,1 .0625.1875c.31266,1.02151-.0399,1.93549-.46875,2.65625s-.91706,1.34811-1.125,1.875a.66758,.66758 0 0,1 -.0625.0937c-4.11698,6.84742-8.85264,13.23697-13,19.96875a.66758,.66758 0 0,1 -.25.25c-.40847.21753-.89663.246-1.28125.0937s-.65403-.43987-.84375-.75c-.1328-.21709-.18708-.47194-.25-.71875 .006.49995.025,1.00026.0312,1.5a.66758,.66758 0 0,1 -.25.53125c-.36464.26336-.82089.38494-1.21875.34375s-.74589-.21926-1.03125-.4375c-.11869-.0908-.2105-.20726-.3125-.3125 .52348.75809 1.033,1.52762 1.5625,2.28125a.66758,.66758 0 0,1 .125.375c-.01.50346-.17295.98637-.46875,1.3125s-.68643.50659-1.0625.625c-.71956.22655-1.46415.19803-2.0625.125h-.0937c-5.86619.0433-11.73195.21291-17.625.15625l-13.375.0937a.66758,.66758 0 0,1 -.65625-.6875c.0715-1.73449.83115-3.16268 1.6875-4.4375s1.80968-2.41044 2.40625-3.625a.66758,.66758 0 0,1 .0312-.0937l12.4376-18.1561a.66758,.66758 0 0,1 .3125-.25l.15625-.0625a.66758,.66758 0 0,1 .25-.0312h.15625a.66758,.66758 0 0,1 .5.21875c3.70059,4.36133 7.09528,8.99225 10.125,13.84375 .005.007-.005.0239 0,.0312 1.64484,2.4918 3.34283,4.94648 5.03125,7.40625-.0457-.10392-.0922-.20484-.125-.3125l-.0312-.0312c-4.56242-7.25762-9.44478-14.32113-14.34375-21.375a.66758,.66758 0 0,1 -.0937-.34375c-.091-3.17042 2.12031-5.53084 3.40625-7.75 2.67941-4.4615 5.61318-8.73074 8.375-13.09375a.66758,.66758 0 0,1 0-.0312c1.37267-2.04924 2.66961-4.28346 4.15625-6.3125a.66758,.66758 0 0,1 .375-.25zm227.03125.0937c.1492.00094.34463.0679.46875.15625a.66758,.66758 0 0,1 .28125.34375c.36116,1.29054-.0398,2.48035.0937,3.34375a.66758,.66758 0 0,1 0,.0937c.24512,15.09523.27119,30.19826.5,45.28125a.66758,.66758 0 0,1 -.4687.65635c-.47902.12938-.99592.0738-1.375-.125s-.63413-.51175-.84375-.8125c-.41924-.6015-.69002-1.27687-.90625-1.59375-4.71879-7.08086-9.41959-14.16992-14.09375-21.28125a.66758,.66758 0 0,1 -.0312-.6875c4.50593-8.78287 10.37901-16.67012 15.53125-24.9375a.66758,.66758 0 0,1 .21875-.21875c.0311-.0195.17012-.22158.625-.21875zm-74.75.1875a.66758,.66758 0 0,1 .78125.625l.0937,2.09375a.66758,.66758 0 0,1 0,.0625l-1.09375,46.46875a.66758,.66758 0 0,1 -1.21875.34375l-15.5312-23.1562a.66758,.66758 0 0,1 0-.75l16.53125-25.40625a.66758,.66758 0 0,1 .4375-.28125zm2.21875.21875a.66758,.66758 0 0,1 .75.28125l1.875,2.8125c4.6791,6.72517 8.76039,13.77606 13.1875,20.59375l-.0312.0312c.31812.31343.55005.67182.625,1.0625 .086.44843.0369.88638-.0937,1.28125-.24846.75115-.7479,1.36835-1.1875,1.84375h.0312l-14.625,21.3125a.66758,.66758 0 0,1 -1.21875-.375l.21875-48.1875a.66758,.66758 0 0,1 .46875-.65625zm-189.84375.1875a.66758,.66758 0 0,1 .75.28125l2.15625,3.09375c4.87574,7.07209 9.55204,14.25384 14.28125,21.40625a.66758,.66758 0 0,1 .0625.59375c-2.01629,5.73832-6.38472,9.98354-9.1875,14.90625a.66758,.66758 0 0,1 -.0312.0312l-6.25,9.21875a.66758,.66758 0 0,1 -1.15625-.0625c-1.83724-3.35727-.63764-7.06441-.9375-10.15625a.66758,.66758 0 0,1 0-.0625c.0902-12.8616-.008-25.72821-.15625-38.59375a.66758,.66758 0 0,1 .46875-.65625zm244.75,26.2813c.18368-.066.67096.083.4375.0312a.66758,.66758 0 0,1 .40625.28125l17.75,26.96875a.66758,.66758 0 0,1 -.5625,1.03125c-11.60362-.0924-23.23203-.15201-34.84375-.5a.66758,.66758 0 0,1 -.53125-1c5.51188-8.90025 11.22322-17.65507 16.84375-26.46875a.66758,.66758 0 0,1 .34375-.28125l.0937-.0312a.66758,.66758 0 0,1 .06255-.03125zm38.1875.25c.26458-.0103.16247.004.34375,0a.66758,.66758 0 0,1 .5625.28125c5.99199,8.725 11.6216,17.65922 17.4375,26.46875a.66758,.66758 0 0,1 -.0312.78125c-.30561.40452-.71284.66776-1.125.78125s-.82305.0965-1.1875.0625c-.72891-.068-1.37288-.2021-1.75-.125a.66758,.66758 0 0,1 -.125,0c-10.47461.0603-20.93701.0177-31.40625,0a.66758,.66758 0 0,1 -.5625-1c5.67514-9.0188 11.33431-18.06509 17.3125-26.90625a.66758,.66758 0 0,1 .3125-.25l.15625-.0625a.66758,.66758 0 0,1 .0625-.0312zm-75.75.0625a.66758,.66758 0 0,1 .6875.28125l4.09375,6.3125 12.625,19.6875a.66758,.66758 0 0,1 -.5625,1.03125l-33.625-.0937a.66758,.66758 0 0,1 -.5625-1.0313l16.90625-25.90625a.66758,.66758 0 0,1 .4375-.28125zm-152.09375.625a.66758,.66758 0 0,1 .46875.15625c1.9187,1.63851 2.94674,3.86735 4.3125,5.59375a.66758,.66758 0 0,1 0,.0312c4.56747,6.49585 9.10636,13.02064 13.5625,19.59375a.66758,.66758 0 0,1 -.21875.93755c-1.56378.90937-3.26412,1.04315-4.875,1s-3.17856-.24467-4.59375-.0937a.66758,.66758 0 0,1 -.0625,0c-8.48157.0267-16.9559.0371-25.4375.0312a.66758,.66758 0 0,1 -.59375-.9375c4.35759-8.93728 10.4944-16.73399 15.84375-24.90625a.66758,.66758 0 0,1 .125-.125c.0222-.0204.15712-.24029.34375-.53125s.54292-.72121 1.125-.75zm114.21875.375a.66758,.66758 0 0,1 .75.28125l16.4375,25a.66758,.66758 0 0,1 -.5625,1.03125h-33.59375a.66758,.66758 0 0,1 -.5625-1.03125l17.15625-25a.66758,.66758 0 0,1 .375-.28125zm-128.28125,27h.0312c9.84273.1546 19.70237.0745 29.5625.125a.66758,.66758 0 0,1 .40625.125c.40425.30279.66318.72507.75,1.15625s.0253.84655-.0937,1.21875c-.23813.7444-.71455,1.3673-1.03125,1.8125h.0312l-13.9375,21.65625a.66758,.66758 0 0,1 -.5625.28125c-1.25692-.0191-2.11014-.83222-2.625-1.65625s-.87085-1.68715-1.28125-2.1875a.66758,.66758 0 0,1 0-.0625c-4.75173-6.68746-9.03436-13.65889-13.56245-20.4375a.66758,.66758 0 0,1 -.0937-.4375c.0706-.66677.54798-1.16212 1.03125-1.375 .47278-.20826.95502-.2387 1.375-.21875zm-7.8125.15625a.66758,.66758 0 0,1 .3125.0625c.38258.21928.64518.60843.71875,1s-.005.73647-.125,1.03125c-.24086.58956-.6487,1.07877-.8125,1.34375-2.07781,3.38312-4.03416,6.86424-6.3125,10.1875-.005.007.005.0238 0,.0312-2.56196,4.05539-5.26816,8.01489-7.71875,12.09375a.66758,.66758 0 0,1 -.1875.1875c-.71771.51625-1.61469.37049-2.1875-.0312-.52663-.36935-.86339-.88685-1.09375-1.40625h-.0312c-.0261-.0386-.0364-.0864-.0625-.125-2.93731-4.35646-5.42789-8.93055-8.4375-13.125a.66758,.66758 0 0,1 -.0312,0l-6.25-9.46875a.66758,.66758 0 0,1 .53125-1.03125c9.56539-.55291 19.10079-.41426 28.625-.65625a.66758,.66758 0 0,1 .0312,0c.94234-.0115 1.95426-.15177 3.03125-.0937zm44.46875.1875h.0937l31.84375.625a.66758,.66758 0 0,1 .59375,1c-4.73746,8.32865-10.1731,16.19072-15.5,24.09375a.66758,.66758 0 0,1 -.28125.21875c-.40816.19485-.87963.22398-1.25.0625s-.59794-.42316-.78125-.6875c-.36663-.52868-.61113-1.1339-.75-1.34375l-15.15625-22.3125a.66758,.66758 0 0,1 -.0937-.28125c-.0594-.4325.13695-.76214.375-1 .21604-.21586.52944-.35782.90625-.34375v-.0312zm145.21875.34375a.66758,.66758 0 0,1 .5625,1l-1.75,2.96875-13.6875,21.46875a.66758,.66758 0 0,1 -1.125.0312c-5.21809-7.85323-10.3601-15.74251-15.4375-23.6875a.66758,.66758 0 0,1 .4375-1.03125c5.97943-1.243 11.91722-.04 17.65625-.46875a.66758,.66758 0 0,1 .0625,0l13.28125-.2812zm10.84375.15625c1.57907-.005 3.14496.012 4.71875.0312 7.66904.0747 15.33806.19056 23,.21875a.66758,.66758 0 0,1 .5625,1.03125c-5.43248,8.22359-10.83045,16.47705-16.1875,24.75a.66758,.66758 0 0,1 -1.125,0l-16.25-24.93745a.66758,.66758 0 0,1 .5625-1.03125c1.5736-.0297 3.13958-.0573 4.71875-.0625zm-87,.0625a.66758,.66758 0 0,1 .6875.65625v.15625a.66758,.66758 0 0,1 -.0937.34375c-4.56326,7.43597-9.49369,14.60618-14.09375,21.96875l-.0313-.03125c-.0491.33181-.0775.68466-.28125.90625-.29508.32085-.6655.51064-1.0625.59375s-.8191.0699-1.21875-.125c-.32283-.15747-.5728-.49738-.71875-.875h-.0312c-4.67415-7.25534-9.48798-14.43715-14.28125-21.625a.66758,.66758 0 0,1 -.0937-.53125c.12233-.46515.42906-.86965.78125-1.09375s.71328-.29217 1.0625-.3125c.69845-.0407 1.35873.10337 1.71875.0937a.66758,.66758 0 0,1 .0625,0c9.2003.23729 18.3825.11104 27.59375-.125zm6.53125.0312a.66758,.66758 0 0,1 .15625,0l31.28125.0313a.66758,.66758 0 0,1 .5625,1.03125l-15.53125,23.96875a.66758,.66758 0 0,1 -1.125,0l-15.75-24a.66758,.66758 0 0,1 .40625-1.03125z"/>
  <path d="m354.16 448.25c-1.1096 1.6743-0.49722 3.7735-0.75981 5.6467-0.51468 18.766-0.91718 37.534-1.2765 56.303-0.11473 13.056-0.17915 26.114-0.0277 39.17 0.2241 30.567 0.5915 61.132 0.86503 91.698-0.43394 1.4274 0.70322 1.1467 1.7255 1.213 1.2488 0.0515 0.77044-1.6061 0.93805-2.3928 0.18692-5.1511 0.11933-10.307 0.22438-15.46 0.19262-16.627 0.18475-33.256 0.16756-49.885 0.0784-23.574 0.40495-47.149 0.18721-70.723-0.08482-18.275-0.44333-36.546-0.57499-54.82-0.16441-0.60266-0.89142-0.95924-1.4688-0.75zm38.75 2.3125c-0.9899-0.19818-2.122 0.29907-1.875 1.4953 0.14245 4.046 0.0236 8.105 0.0625 12.156 0.0258 9.1373-0.0902 18.274-0.37145 27.407-0.20041 6.2823-0.21299 12.569 0.0263 18.85 0.45891 15.653 0.7872 31.312 0.61407 46.972-0.14994 28.269-0.41647 56.538-0.6752 84.806h3.875c0.16452-20.998-0.51196-41.992-0.4101-62.99-0.0355-34.583-0.0815-69.167-0.18734-103.75-0.0717-8.3296-0.4031-16.654-0.68381-24.978l-0.375 0.0312zm36.688 31.281c-1.1798 0.12068-1.2436 1.5798-1.1875 2.5-0.34347 17.518-0.89214 35.04-0.53125 52.562 0.14414 14.717-0.26469 29.436 0.0954 44.152 0.18911 19.489-0.10101 38.979-0.15593 58.469 0.28105 0.87997-0.63389 2.9689 0.76051 2.7234 0.85062-0.2775 2.8597 0.61002 2.8344-0.54841 0.1129-14.946-0.39862-29.888-0.41688-44.834-0.0633-9.862 0.17535-19.725 0.60645-29.577 0.20849-11.804-0.30626-23.606-0.2239-35.411 0.028-12.593-0.0679-25.186-0.23762-37.778-0.025-3.6276-0.0499-7.2553-0.0749-10.883 0.55515-0.89615-0.73723-1.5301-1.4688-1.375zm-115 8.8125c-1.2377 5.6918-0.34213 11.565-1.1035 17.308-1.0055 16.717-0.61632 33.471-0.57315 50.207 0.17902 28.026 0.29297 56.052 0.36414 84.079h3.5938c0.31797-12.563 0.26254-25.131 0.13114-37.696-0.12353-15.273-0.21694-30.548 0.0181-45.82 0.12744-12.683 0.23646-25.369-0.0969-38.05-0.17242-9.2904-0.55249-18.577-0.98985-27.857 0.023-0.8387-0.19635-2.3412-1.3438-2.1703zm-189.97 25.812c-0.25557 24.746-0.45243 49.493-0.40625 74.24 0.0128 17.18 0.0435 34.361 0.0312 51.541 0.78017-0.0566 1.7904 0.2877 2.375-0.375 0.176-1.1044 0.0113-2.2701 0.0799-3.3983 0.1713-31.288 0.0955-62.577 0.0955-93.865-6e-3 -9.3809-0.0128-18.762-0.0192-28.143-0.71563 0.1089-1.4408-0.10788-2.1562 0zm38.594 17.781c-1.1682-0.0165-1.6746 1.4335-1.4375 2.4062 0.27415 28.374 0.28335 56.75 0.21875 85.125v20.469c0.80345-0.2628 1.8879 0.44987 2.5-0.3125 0.2808-2.0638 0.1489-4.1895 0.1875-6.278 0.11727-32.563 0.0917-65.128 0.3125-97.691-0.20843-1.1415 0.50112-2.6307-0.59375-3.4688-0.34845-0.23802-0.77247-0.33065-1.1875-0.25zm114.66 38.125c-1.0679 7.6515-0.50487 15.394-0.78222 23.089-0.10771 15.595 0.10422 31.191 0.0635 46.786 0.88769-0.28297 2.007 0.48259 2.7188-0.34375 0.14017-20.176-0.049-40.352 0.0193-60.528 0.0272-2.7276 0.0314-5.459 0.0464-8.1803 0.12232-1.0561-1.3714-0.79057-2.0657-0.82296zm-77.094 10.312c-1.4654 0.26476-1.8263 2.0594-1.6562 3.3125-0.15322 18.333-0.19489 36.667-0.125 55-0.42482 1.1452 1.1563 1.5117 2 1.375 1.0094 0.16493 2.0946-0.57098 1.7712-1.6733-0.23192-11.803-0.14478-23.609-0.2647-35.414-0.027-6.9172-0.11237-13.836-0.20869-20.751 0.0355-0.84765-0.46454-2.0695-1.5166-1.8492zm38.969 15.938c-1.1925 1.4842-0.51226 3.4837-0.72112 5.214-0.13729 12.807-0.63995 25.607-0.93513 38.411h5.0312c-0.0738-12.571-0.9569-25.131-0.65016-37.705l0.0564-5.0766c-0.47054-1.0814-1.8365-0.87036-2.7812-0.84375z"/>
  <path d="m368.22 435.91c-0.74879-0.0129-1.5012 3e-3 -2.25 0.0312-10.175 0.81518-20.052 4.9174-27.781 11.594-6.9391 5.9381-12.38 13.408-17.125 21.156-7.0621 11.729-12.54 24.311-18.062 36.813-5.6628 12.913-11.255 25.87-17.531 38.5-2.8467 5.638-5.9017 11.176-9.5938 16.312-3.9369 5.6305-8.5626 10.77-13.625 15.406-4.0954 3.6618-8.7909 6.7045-13.969 8.5938-5.8324 2.228-12.18 3.2314-18.406 2.5938-6.7651-0.77574-13.169-3.8305-18.312-8.25-7.4806-6.1167-13.518-13.72-19.5-21.25-6.8916-8.6151-13.471-17.601-21.656-25.062-4.8064-4.2675-10.077-8.0297-15.75-11.062-4.1634-2.235-8.484-4.1631-12.969-5.6562-4.7906-1.5034-9.7441-2.4676-14.688-3.2812-1.0469-0.16486-1.6687 1.2442-0.8125 1.875 1.0916 0.36038 2.2605 0.41309 3.375 0.71875 5.6415 1.1884 11.237 2.8466 16.344 5.5625 3.7784 2.0181 7.4592 4.2528 10.875 6.8438 4.9596 3.6422 9.4875 7.8516 13.781 12.25 4.507 4.6884 8.5856 9.7822 12.375 15.062 6.7684 9.2057 12.864 18.918 20.406 27.531 4.9383 5.4908 10.841 10.303 17.781 13 5.5544 2.2872 11.666 3.0524 17.625 2.4062 7.7495-0.76691 15.236-3.7165 21.531-8.2812 6.953-4.9529 12.518-11.62 17.125-18.75 5.856-9.1398 10.422-19.007 15.031-28.812 6.9524-15.168 13.318-30.604 20.25-45.781 4.0522-8.6648 8.2367-17.331 13.594-25.281 3.5801-5.3079 7.5966-10.34 12.219-14.781 6.6408-6.3849 15.204-11.02 24.438-12.031 7.7588-0.93568 15.66 0.71571 22.812 3.7188 7.6682 3.2282 14.8 7.5781 21.469 12.531 8.6079 6.3737 16.643 13.535 23.844 21.469 0.84897 0.90631 1.6781 1.8514 2.5 2.7812v-5.9688c-0.48909-0.59201-0.97564-1.1926-1.4688-1.7812-4.2184-5.012-8.5359-9.9449-13.188-14.562-6.4734-6.4841-13.515-12.444-21.438-17.094-6.9355-4.1068-14.518-7.2953-22.531-8.4688-2.2202-0.33811-4.4724-0.55501-6.7188-0.59375z"/>
  <path d="m299.73638,484.64483c-4.12856.28445-11.82196,3.82188-12.89897,4.93196-.28722.29601-.34195.6564-.26557,1.02432-.0513.0712-.57837.83332-.60701,1.32784-.0699,1.20907.83549,2.31019.75876,3.52824-.0853,1.35369-1.32783,3.90764-1.32783,3.90764l-2.92124.75876-.83464-.30351c.364-.42397.3801-.45185.64495-1.13814 .20095-.52071-1.10021-1.17608-1.10021-1.17608s.0623-.56822-.30351-.4932l-.94845.18969c-.4756-.12846-.73753-.53161-1.47959-.34144 0,0-.35489-.40648-.64495-.53113-1.33274-.57288-1.42393,1.12879-2.04865,1.06226 .34497.16925.61857.18273.7967.11382-.38386.40085-.95895.99809-1.21403,1.55546-1.03531,2.26172.16491,3.36922-.15174,5.38722 .39701-.2245.58005-.55826.68289-.87258-.14402,1.52247.57661.75497.75875,1.82103 .58098-1.53158-.21827-.63504 1.21402-1.89691-.53697.70386.0304,1.78848-.75875,2.20042 1.26215-.17248 1.82894-1.79356 2.61772-2.92124 .41268-.58981-.11269-.0784.26557-.87257s1.66928-.30352 1.66928-.30352 .26435,1.24715.72082,1.63135c.48292.40644 1.82104.45526 1.82104.45526l.94845.41731c-1.39622.11288-2.69992.36167-3.14886.64495-.62827.39642-1.03982.71149-1.36578,1.02433-.1771-.0167-.55681-.0252-.64495-.0379-.72148-.10434-2.19197,2.81753-1.13814,3.14886l6.52536,2.04866c-.30161.25628-.62799.77564-.68289.87258-.0731.12924-1.78309,4.89402-1.78309,4.89402l-.37938-.41732-.72083.30351-3.4903-.30351 .34144-.53114-.72083-.49319c0,0 .65285-4.09128.56907-4.62845-.17352-1.11357-2.20041-3.33856-2.20041-3.33856 .26101-.53186-.0842-1.08537-.30351-1.40371-.18049-.26247-.30174-.43222-.34144-.26557-.10051.42389.2168.89492-.0379.94845 0,0-.0895.26543-.53113-.11381-.21428-.18399-.11381-1.10021-.11381-1.10021-.0704-.10671-.10475-.33555-.30351-.0379l-.0759.9864c0,0-.18612-.17748-.22764-.45526-.0594-.39163.0531-.93885-.18968-.75876-.30827.22867.0924,1.11598.11381,1.2899s-.6424-.36158-.72082-.64495-.22484-.0974-.15175.26556 1.79981,1.5512 2.46598,1.74516c.45923.1337 1.47184,1.71433 1.70721,2.80742 .21653,1.00496-.34144,3.14887-.34144,3.14887-.22203-1.98622-.2912-4.038-2.42804-4.81815 .0339-.27092-.54803-.66309-.87258-.68288-.69225-.0423-1.21402-.72083-1.21402-.72083-.0848-.61563-.54828-.95783-.41732-.18969 .15934.2809.3035.64495.3035.64495s-.68173-.80557-.7967-1.02433-.37604-.14526-.34144.0759 .72083,1.21402.72083,1.21402-.67141-.3944-.87259-.53113-.3455-.27092-.37937,0 .975.7726 1.25196.9864 2.23851.60059 3.26267,1.25195 1.00193,4.35307.91052,4.51464-.41732-.11381-.41732-.11381l-.41732.64494h-.37938l-.26557.91052-.72082.22763-1.36577-.60701c0,0 .8912-1.40151 1.02432-1.70722s-1.1002-.87257-1.1002-.87257-.0512-.46212-.1897-.56907-.85369.11441-1.21402.18968c-.36045.0745-.0229-.37934-1.28989-.53113-.37029-.0449-.91051.15175-.91051.15175s-.68934.0252-1.02434.15176c-.49993.18876-1.36577.87257-1.36577.87257l.18969.11381-.41732.56908 .26557.11381c-.22013.54326-.68957,1.07898-.60701,1.66928l.56907-.11381c-.36736,1.01692-.0819.93896-.0759,1.17608 .14971-.20982.1253-.67985.49319-.53113-.15254.63883-.0675,1.20217.15175,1.74515 .31902-.58772.59894-.78717.87258-.83464l-.0759.4932 .45525-.37938c-.0988.47936-.0262.64344.0379.83463 .15558-.36657.28814-.8421.87257-.94845l-.15174.53113c.24047.19475 1.72423-1.0829 1.97277-.98638 .32542.12645 1.51754,1.32783 1.51754,1.32783s.51729.70941.87257.94845c.83799.56384 2.23822,1.10266 3.49031,1.51753-1.21516.12412-2.33096.31631-2.73155.56907-.57629.36362-.97127.69169-1.2899.98639-.66095-.0217-1.13814-.0759-1.13814-.0759l-1.13814,4.09732c-.36756,1.32975 10.23628,3.60422 14.79588,4.28701 .78163.11703 1.82135-.59921 2.12454-1.25196l.22762-.53113c.24428.25561.55062.46981.91052.60701 1.36468.52022 2.97152-.15565 3.60412-1.51753s.0748-2.89421-1.28989-3.41443c-.35311-.13461-.73452-.20705-1.10021-.18969l.83463-1.78309c.17706.12999.38859.25817.60701.34143 1.36469.52022 2.97153-.15564 3.60414-1.51752s.0369-2.89422-1.32784-3.41444c-.21908-.0835-.45583-.12805-.68289-.15175 2.91824-6.27176 5.32606-11.4491 8.30845-17.94474 .22339.2047.49058.3765.79671.4932 1.36467.52022 3.00946-.1936 3.64206-1.55547s.0369-2.85627-1.32784-3.37649c-.31691-.12081-.65756-.19204-.98639-.1897l.41732-.91051c.27031.44849.67383.81841 1.21402,1.02433 1.36469.52022 2.97153-.15565 3.60412-1.51753s.0369-2.89421-1.32783-3.41443c-.58578-.2233-1.2017-.21641-1.7831-.0379 .0207-.053.10157-.2681.11382-.3035 .75897-2.18639-3.67161-5.0042-5.31134-5.08371-.24052-.0117-.52145-.019-.7967,0zm-13.1266,6.0701c.0892.32056.25517.66288.49319.98639l-.49319-.15175v-.83464zm.72082,1.25196c.54306.65557 1.25178,1.21996 1.63134,1.55546 .55485.49045 2.85524,1.45227 4.89402,2.23835-.58644.20016-1.22221.35187-1.44164.45526-.72883-.31845-.30714-.37818-.83465-.0379-.58512.37737-.94844,5.34928-.94844,5.34928l-3.22475-1.02433 .34144-.60701-.91051-.45525 .94845-3.64207-.7967-2.42804 .34144-1.40371zm8.27052,4.85608c.28306-.0207.46491.0746.60701.18969l.45526-.15175c.59414.28402.75787.86079.53113,1.63134-.61112-.2783-1.27284-.46129-1.78309-.34144-.0238.005-.0524-.006-.0759,0l-1.02432-.87258c.61272-.31186 1.00683-.4345 1.28989-.45526zm-8.9534,15.13732c0,0 1.35467.10878 2.46598.18969 .70048.29351.42531,1.17272-.37938,2.27629-.31815-.0757-.60982-.0996-.87258-.0379-.93031.21854-1.57605,1.05629-2.04867,2.04866 .33446-1.95809.83465-4.4767.83465-4.4767z"/>
  <path d="m324.8126,440.41479c-4.30202.12054-11.40456,2.41246-12.5292,3.31749-.241.19394-.34215.44212-.3746.70723-.12234.2989-.30353.62683-.30353.62683s.20085-1.04729.3018-1.27289-.12641-.37464-.27905-.2109-.4888,1.32242-.4888,1.32242-.15913-.77279-.17649-1.01541 .0259-.43213-.20797-.29128 .0548,1.20497.0577,1.55485c.002.14148.14698.56504.33029,1.04396 .004.014-.001.0616.005.0758 .0281.17786-.004.29146-.13284.31225 0,0-.0411.23649-.46604-.16137-.20614-.19302-.0699-1.136-.0699-1.136-.0658-.10957-.0917-.27018-.30293.0186l-.1311.95831c0,0-.18966-.20138-.21961-.48062-.0427-.3938.12568-.96012-.12468-.79054-.31774.21521.0328,1.19076.046,1.36552s-.62185-.39338-.688-.67985-.23521-.16475-.17768.20098 1.73826,1.64477 2.39546,1.86715c.26435.0894.27207,1.00651.15897,1.96672-.0473.007-.0767.0452-.11127.0448-.67632-.0112-.6111.56973-.6111.56973-.93265,1.36056-1.80373,2.76285-3.59855,3.90835l-.86687.73752c-.16667-.19596-.21596-.0719-1.0556.14098l-.21496-.40488c0,0 .73459-.26905 1.23214-1.5962 .0614-.1639-.64114-1.06628-1.11849-.88143-.0842-.31143-.16716-.32043-.32624-.36004-.25281-.063-.36934.17477-.36934.17477s-.14349-.16627.0478-.45906c.0956-.14637-.93111-.0934-1.29446-.0344s-.14353-.35379-1.4028-.55986c-.36789-.0601-.90414.13167-.90414.13167s-.71548.0289-1.0556.14098c-1.67454.88574-2.08004,2.21867-1.77104,3.3398 .51402,1.86881 3.01414,3.20102 4.78166,1.11218 .31966.14031 1.4919,1.39061 1.4919,1.39061s.43768.72404.78237.97813c.10117.0745.23728.13184.35479.20623-.5608.27628-.95988.52385-1.2834.76314-.1953-.0425-.60023-.12201-.69325-.1474-.46762-.12762-1.41177,1.0383-1.70344,1.96729l.0979-.88026c0,0-.70877.79154-.79406,1.30319-.199,1.19459.61747,2.38284.41066,3.58566-.22987,1.33677-1.78329,3.75867-1.78329,3.75867l-2.97748.41124-1.18085-.0414c.40733-.3825.83121-.74824 1.16806-1.4022 .25559-.49616-.95247-1.27175-.95247-1.27175s.10958-.58906-.26214-.55402l-.98221.0984c-.4591-.17867-.67784-.59144-1.436-.4818 0,0-.3359-.39901-.56974-.61112s-2.41008.9845-2.41008.9845l1.46282-.31806c0,0-1.37864,1.07002-1.82636,1.82281-1.27135,2.13771-1.01166,5.07831-1.54273,7.05072 .55716-.60894.89542-.8913.89542-.8913-1.09185,1.82784-.93486,3.00514-1.28462,4.45017 0,0 .93512-2.19007 1.10282-2.46247 .48216-.78312 1.79083-1.78261 1.79083-1.78261 .11482.38927-.36518,1.32134-.7428,2.13624 0,0 1.10355-1.26468 1.4809-1.87757s1.38807-2.55743 1.84911-3.3066c.28593-.46467 1.04936-.26882 1.29211-.003-.29994.15335-.49752.56274-.49752.56274l.73112.14507c1.1241.88232 2.17575,1.0398 3.24776,1.51064l.5913.34372c-1.11183-.009-2.09676.0422-2.49454.22951-.63048.29681-1.07517.59037-1.43019.8482-.65549-.10284-1.11677-.23538-1.11677-.23538l-1.62017,3.93867c-.52779,1.27467 9.72806,4.80947 14.16956,6.04605 .76141.212 1.83981-.36219 2.22073-.97284l.48588-.75209c.14984.13492.32668.24835.51556.34839 1.29062.68359 2.97848.20569 3.77327-1.06837s.39003-2.83393-.90058-3.51752c-.19635-.104-.4119-.1763-.62217-.22779 .18887-.30187.54246-.83443.76316-1.18725 .16274.15576.34596.30942.55808.42178 1.29063.68361 2.9785.20571 3.77328-1.06835s.38769-2.8718-.90292-3.55539c-.21118-.11186-.43312-.17425-.66004-.22547 3.67035-5.87518 6.72517-10.71452 10.48347-16.79917 .19633.22979.43241.44884.72119.6018 1.29063.68358 2.97848.20568 3.77327-1.06836s.3877-2.87179-.90292-3.5554c-.31131-.16488-.63028-.28563-.96996-.32042 .18899-.30882.38153-.58642.55461-.87034 .18523.2008.41666.35299.67635.49052 1.29062.68361 2.97849.20571 3.77328-1.06835s.39002-2.83393-.90059-3.51752c-.33413-.17697-.71832-.28589-1.08356-.31344 .28874-2.07727-3.31009-4.99438-4.80839-5.25362-.47456-.0821-1.02533-.10637-1.63991-.0891zm-12.82166,4.74186c.32503,1.04008 1.38818,2.21563 1.88104,2.77301 .43282.48951 2.24675,1.55586 4.03246,2.52664l-.53014.0326c-.32404-.004-.96594.81251-1.04455.93849s-1.97087,4.41637-1.97087,4.41637l-.37866.0233-.4212-.0501-3.33864-.51679 2.03143-3.43184 .63501-.79928c0,0 .19512-1.18367-.3303-1.04394-.0618.0163-.0985-.0925-.16544-.21789 .13982-.82791.0594-1.6678-.18693-2.42113 .23402-.14078.19088-.87323.006-1.14066-.27841-.40263-.25943-.81226-.21902-1.0888zm6.32825,7.09861c0,0 1.51459-.0693 2.92271-.0658 .48121.36197.52616.95404.21611,1.65914-.57173-.35038-1.22564-.6331-1.74593-.57677-.84087.091-1.48522.71661-2.03667,1.49366 .33416-1.33822.64378-2.51025.64378-2.51025zm-16.2012,9.73902 5.47605,2.51384c-.56492.26447-1.63566.81297-2.05763,1.15286-.54224.43677-.86693,5.67879-.86693,5.67879l-3.08465-1.33061 1.08826-2.08148-.7212-.60179 .48705-1.96848-.53475-2.51376 .2138-.84937zm6.17862,2.8127 1.56591.73988-1.20008.26388-.36583-1.00376zm3.81517,2.08389c.034.43893-.38465,1.04509-1.0335,1.73602-.29263-.10476-.58798-.16588-.84471-.13809-.2313.0251-.42836.0971-.63442.19108l.10196-.19633-.65186-1.32825 3.06253-.26446z"/>
 </g>
</svg>
